<svg width="72" height="89" viewBox="0 0 72 89" fill="none" xmlns="http://www.w3.org/2000/svg">
<mask id="mask0_1886_7659" style="mask-type:alpha" maskUnits="userSpaceOnUse" x="0" y="0" width="72" height="89">
<rect width="72" height="89" rx="20" fill="#414141"/>
</mask>
<g mask="url(#mask0_1886_7659)">
<path d="M23.5 83.4875C23.6124 87.4197 24 93.5029 23.5 95.5029L34.1398 96.5029C34.3975 94.9113 32.6197 93.5191 33.2261 92.0029C34.2261 89.5029 35.2892 83.347 35.5 82.4342C35.6687 81.7039 38.1692 79.0363 38.4269 79.1533C38.4269 79.7385 40 86.0029 40 91.0029C40 92.1966 39.8594 91.4751 40 94.0029C40.1124 96.0252 41.5896 97.3007 41.6599 98.0029L49.6016 95.0033C50.0233 93.9734 49.9109 94.9068 50.8667 88.5029C51.4289 84.7359 52 77.1678 51.4289 71.5029C51.2529 69.7563 51.4289 71.014 50.8667 66.5029C50.5886 64.2721 49.8827 59.4026 49.6016 56.8747C49.3767 54.8524 49.9765 49.6583 50.1639 49.0029C50.2341 49.7753 51.7892 57.8262 52 60.0029C52.2108 62.1797 53.8225 67.2227 54.5916 68.5029C55.7864 70.4918 55.7161 72.3696 55.7864 73.2356C55.7395 73.1888 55.5333 73.2637 55.0835 73.9378C54.5213 74.7804 54.451 76.3954 54.5916 77.1678C54.7321 77.9402 54.1699 78.8531 54.2402 79.9765C54.3105 81.1 54.6619 81.3107 55.0835 81.1703C55.5052 81.0298 55.6458 79.6255 55.7864 78.8531C55.8988 78.2351 56.208 77.9402 56.3486 77.87C56.3955 78.0807 56.4892 78.6424 56.4892 79.2041C56.4892 79.9063 55.7864 81.8724 55.5052 82.4342C55.2241 82.9959 55.0133 83.6981 55.2944 83.9088C55.5755 84.1194 56.0675 83.6279 56.3486 83.2066C56.6297 82.7853 57.9651 80.3979 58.2462 79.3446C58.5273 78.2913 59.1598 74.2186 59.1598 72.7441C59.1598 71.2695 58.5273 69.7949 58.5273 68.0394C58.5273 66.284 58.1759 60.6665 57.9651 58.7706C57.7542 56.8747 57.5 52.618 57.5 51.0029C57.5 49.3879 57 44.0083 57 43.0029C57 41.0029 56.208 36.4412 54.8727 34.1942C53.5374 31.9472 52.7643 31.1748 51.4289 30.8237C50.0936 30.4726 47.2121 29.4194 45.8767 29.0683C44.5414 28.7172 42.0113 28.4363 41.6599 27.5235C41.3787 26.7932 41.3085 24.5509 41.3085 23.521L34.1398 23.1699C34.1398 24.4339 34.2101 26.2595 33.2261 27.0319C32.2422 27.8043 28.3767 28.8576 26.9711 29.4194C25.5655 29.9811 24.0647 30.394 23.2462 30.8237C21 32.0029 21.0675 31.6663 19.6619 34.4049C18.2563 37.1434 17.5703 41.3879 17.5 43.0029C17.4297 44.618 17.3602 50.274 16.5 53.0029C16.0181 54.5319 15.9371 56.5236 15.5856 58.2791C15.2341 60.0345 15.0937 69.3034 15.0937 70.3566C15.0937 71.4099 14.8829 72.1823 15.0937 73.6569C15.3046 75.1315 15.3748 77.9402 15.9371 78.7828C16.4993 79.6255 17.4833 81.8724 17.6941 82.1533C17.905 82.4342 19.0997 83.2066 19.8728 83.4875C20.6459 83.7683 20.7865 83.4875 20.8568 83.2066C20.927 82.9257 20.2945 82.7853 19.3106 81.8724C18.3267 80.9596 17.8347 78.7828 17.9752 78.502C18.0877 78.2773 18.4438 78.2211 18.6078 78.2211C18.8186 78.619 19.2544 79.5271 19.3106 79.9765C19.3809 80.5383 19.662 81.6618 20.4351 81.4511C21.2082 81.2405 20.4351 78.9935 20.2945 78.2211C20.154 77.4487 20.3648 75.4826 19.662 74.8506C19.0997 74.345 18.7249 73.6569 18.6078 73.376C18.7483 70.4269 20.4458 66.733 21.5 63.5029C22.5542 60.2729 22.6841 57.8578 23.2462 54.7682C23.6959 52.2965 24.886 48.8698 25.4249 47.4655C26 51.5029 24.5068 58.9482 24 63.0029C23.5 67.0029 23.5 67.2441 23.2462 72.7441C23.1078 75.7432 23.3594 78.5722 23.5 83.4875Z" fill="#F5F5F5" stroke="#8E8E8E" stroke-width="0.5" stroke-linejoin="round"/>
<path d="M25 67.0029C26.2632 70.9502 28.4737 71.4884 31 71.937C27.2105 72.3855 25.5263 70.1991 25 69.0029V67.0029Z" fill="#8E8E8E"/>
<path d="M49.9785 67.0029C48.7154 70.9502 46.5048 71.4884 43.9785 71.937C47.768 72.3855 49.4522 70.1991 49.9785 69.0029V67.0029Z" fill="#8E8E8E"/>
<path d="M23.4812 53.5744C24.1695 48.7149 25.1347 48.1288 25.5 47.5029C26.2306 47.9723 28.3183 57.9553 27.9526 62.4927L25.7409 70.0029C22.3514 66.7172 22.7929 58.4336 23.4812 53.5744Z" fill="#8C8C8C"/>
<path d="M51.4973 53.5744C50.809 48.7149 49.8438 48.1288 49.4785 47.5029C48.7479 47.9723 46.6602 57.9553 47.0259 62.4927L49.2376 70.0029C52.6271 66.7172 52.1856 58.4336 51.4973 53.5744Z" fill="#8C8C8C"/>
<path d="M24 54.0029C24.8576 48.2084 25.4634 46.2458 25.9994 45.5029C30.288 45.5029 32.4338 57.8166 31.8973 63.2025L27.4997 70.5029C23.9994 69.5029 23.1424 59.7975 24 54.0029Z" fill="#F5F5F5"/>
<path d="M50.9785 54.0029C50.1209 48.2084 49.5151 46.2458 48.9791 45.5029C44.6905 45.5029 42.5447 57.8166 43.0813 63.2025L47.4788 70.5029C50.9791 69.5029 51.8361 59.7975 50.9785 54.0029Z" fill="#F5F5F5"/>
<path d="M30.7964 16.3105C30.6228 14.7484 29.3018 11.6817 28.8438 10.2354C29.3741 10.2354 30.9555 10.308 31.5919 11.4651C32.2283 12.6222 31.3267 15.1775 30.7964 16.3105Z" fill="#8C8C8C"/>
<path d="M30.4139 11.5608L30.4023 11.4545L30.3174 11.3895C29.1458 10.492 28.6717 9.16051 28.9586 7.91922C29.245 6.68071 30.3034 5.47797 32.3086 4.88163C35.5456 3.91897 38.0439 4.92513 38.8589 5.51653L38.9246 5.56419H39.0057C41.9272 5.56419 43.3433 6.58245 43.9746 7.78321C44.619 9.00882 44.4884 10.5011 44.1554 11.5096L44.1428 11.5478V11.588C44.1428 12.6996 44.0396 15.0413 43.8844 17.2195C43.8068 18.308 43.7165 19.352 43.62 20.1784C43.5717 20.5918 43.5222 20.948 43.4725 21.2268C43.4211 21.5147 43.3736 21.6944 43.3371 21.7733C43.2488 21.9641 42.9748 22.355 42.5629 22.8502C42.1575 23.3375 41.6359 23.9055 41.0719 24.4457C40.5069 24.9867 39.9049 25.4944 39.3386 25.8652C38.7624 26.2424 38.2615 26.452 37.8896 26.452C37.5141 26.452 36.9617 26.2329 36.3076 25.8438C35.6657 25.4619 34.966 24.9413 34.3086 24.3923C33.6519 23.8439 33.0429 23.2718 32.5826 22.7901C32.3522 22.5491 32.1613 22.333 32.021 22.1556C31.8739 21.9696 31.8017 21.8497 31.7825 21.7952C31.7627 21.7389 31.7293 21.5922 31.685 21.349C31.6421 21.1136 31.592 20.8056 31.5366 20.4408C31.4259 19.7117 31.2949 18.7621 31.1592 17.7258C30.8878 15.6533 30.5979 13.2394 30.4139 11.5608Z" fill="#F5F5F5" stroke="#8E8E8E" stroke-width="0.5"/>
<path d="M43.6709 7.05279C44.2495 11.7535 33.8342 14.8247 28.4839 13.4169C17.4903 10.5241 27.6311 10.2529 28.1945 8.35454C29.2071 4.94262 31.1597 3.00293 35.5712 3.00293C41.646 3.00293 43.6709 4.53653 43.6709 7.05279Z" fill="#8C8C8C"/>
<path d="M44.6827 11.3197C43.8753 13.1422 43.5879 11.2558 41.2837 10.235C38.9796 9.21416 35.9807 8.74922 36.7881 6.92677C37.5955 5.10433 40.1179 4.45447 42.422 5.47527C44.7262 6.49607 45.4901 9.49731 44.6827 11.3197Z" fill="#8C8C8C"/>
<ellipse cx="38.5658" cy="67.5814" rx="1.54144" ry="0.5" transform="rotate(-3.04777 38.5658 67.5814)" fill="#8C8C8C"/>
</g>
</svg>
