<svg width="72" height="89" viewBox="0 0 72 89" fill="none" xmlns="http://www.w3.org/2000/svg">
<mask id="mask0_1886_7689" style="mask-type:alpha" maskUnits="userSpaceOnUse" x="0" y="0" width="72" height="89">
<rect width="72" height="89" rx="20" fill="#414141"/>
</mask>
<g mask="url(#mask0_1886_7689)">
<path d="M33.342 86.9826C32.2077 90.1658 31.564 93.0747 31.384 94.1313H22.8094C22.4494 92.2205 21.8102 87.2523 22.1343 82.6664C22.5394 76.9339 23.0344 75.2479 23.0344 75.2479C23.0344 75.2479 23.7971 71.0216 25.5 65.7387C26.5 62.6365 26.5 60.0029 24.5 54.5029C22.4539 48.8762 23.8601 46.1719 23.5 45.0029C23.2299 46.4192 23.0344 54.0029 19.4336 61.2877C18.0134 64.161 18.0154 67.7807 18.0158 68.5371L18.0158 68.5712C18.0158 69.2457 18.826 69.8526 19.2311 70.7968C19.6362 71.741 19.0285 73.3595 19.2311 74.7084C19.4336 76.0572 19.4336 77.3385 18.826 77.4734C18.2184 77.6083 18.1508 76.1246 18.0158 74.9781C17.9078 74.0609 17.3857 73.427 17.1381 73.2247C16.9355 74.1014 17.1381 76.1246 17.3406 77.0688C17.5432 78.0129 18.4209 78.485 19.4336 79.0246C20.4464 79.5641 19.7712 80.0362 19.2311 80.0362C18.691 80.0362 17.4757 79.3618 17.1381 79.092C16.8005 78.8222 16.3279 77.2711 15.7203 76.1246C15.1126 74.9781 15.18 72.1456 15.18 69.8526C15.18 67.5596 14.7749 67.6945 15.18 65.7387C15.5851 63.783 15.0106 53.471 16 50.5029C16.5 49.0029 17.7532 47.9662 17.3406 46.0029C16.5 42.0029 16.3226 40.1307 16.5 37.5029C16.7025 34.5029 17.826 31.2094 20 30.0029C22.174 28.7965 25.9471 28.7053 27.5 28.5029C29.0529 28.3006 31.3165 28.3766 31.7216 27.7022C32.0457 27.1627 31.8566 24.0154 31.7216 22.5093L39.3509 21.9697C39.1708 23.2961 38.9188 26.1106 39.3509 26.758C39.891 27.5673 41.9152 28.2022 45.5 29.0029C47.7384 29.5029 50 28.5029 53.5968 29.5029C56.8613 30.4106 57.6478 39.1704 57.7828 42.0029C57.9178 44.8354 56.5 50.6995 57.1076 52.7901C57.7153 54.8808 58.635 58.59 58.5 61.2877C58.365 63.9853 57.3777 72.0107 57.1076 73.427C56.8376 74.8432 57.0401 76.4618 57.1076 77.2711C57.1751 78.0804 57.2426 78.0804 56.9051 79.5641C56.5675 81.0478 55.6898 83.2059 55.1497 83.678L55.1128 83.7102C54.5821 84.1742 53.9927 84.6896 53.5968 84.6896C53.1917 84.6896 53.4618 84.0826 53.5968 83.678C53.7318 83.2733 54.542 82.3292 54.6095 80.5083C54.6635 79.0515 54.362 77.8331 54.2044 77.406C54.0469 77.6757 53.6778 78.458 53.4618 79.4292C53.1917 80.6431 52.5165 81.0478 52.1789 80.5083C51.8414 79.9687 52.314 78.8222 52.5165 78.2153C52.7191 77.6083 52.5165 76.2595 52.5165 75.2479C52.5165 74.2363 53.0567 73.4944 53.4618 73.0898C53.7858 72.7661 53.9569 72.1456 54.0019 71.8758C54.2044 67.2899 51.8414 64.7946 51.3012 62.6365C50.8691 60.91 51.3462 56.9265 51.3012 55.825C49.7889 53.2352 49.0057 45.1215 48.8707 43.5029C48.8031 43.975 49.468 48.6331 47.5 52.0029C46.0822 54.4308 44.6396 60.0063 45.5848 62.6365C46.53 65.2667 48.1692 69.4736 48.5 70.7968C49 72.7968 49.5 75.3828 49.5 77.4734C49.5 79.5641 49.4108 81.3175 48.8707 84.6896C48.4386 87.3872 47.1152 92.108 46.5076 94.1313H36.5152C36.8528 92.7825 36.7178 86.9826 36.5152 85.5663C36.3532 84.4333 36.2226 80.2276 36.1776 78.7664L35.5025 79.0362C35.2549 80.0253 34.4762 83.7994 33.342 86.9826Z" fill="#F5F5F5" stroke="#8E8E8E" stroke-width="0.5" stroke-linejoin="round"/>
<ellipse cx="35.5" cy="64" rx="0.5" ry="1" fill="#8C8C8C"/>
<path d="M24.875 47.4225C24.2305 45.3659 23.2497 40.7683 23.0565 40.0029C22.8257 43.1985 23.334 47.6242 23.997 48.2425C27.3945 49.4791 31.8229 48.89 33 48.6591C30.4484 48.6591 25.2626 48.6591 24.875 47.4225Z" fill="#8C8C8C"/>
<path d="M47.125 47.4225C47.7695 45.3659 48.7503 40.7683 48.9435 40.0029C49.1743 43.1985 48.666 47.6242 48.003 48.2425C44.6055 49.4791 40.1771 48.89 39 48.6591C41.5516 48.6591 46.7374 48.6591 47.125 47.4225Z" fill="#8C8C8C"/>
<path d="M27 53.0029C27.6174 53.6944 28.8522 55.6849 28.8522 58.115C29.0745 56.979 29.0152 54.3661 27 53.0029Z" fill="#8C8C8C"/>
<path d="M43.9414 53.0029C43.324 53.6944 42.0892 55.6849 42.0892 58.115C41.8669 56.979 41.9262 54.3661 43.9414 53.0029Z" fill="#8C8C8C"/>
<path opacity="0.7" d="M30.5212 31.4381C31.4103 31.6751 31.9783 32.5247 32.1512 32.9198C31.5585 32.6235 30.0767 32.0307 28.6691 31.6603C27.2614 31.2899 24.6683 31.1417 26.076 30.9194C27.4836 30.6972 29.4099 31.1417 30.5212 31.4381Z" fill="#8C8C8C"/>
<path opacity="0.7" d="M40.0413 31.2906C39.1522 31.5277 38.5842 32.3772 38.4113 32.7724C39.004 32.476 40.4858 31.8833 41.8934 31.5128C43.3011 31.1424 45.8942 30.9942 44.4865 30.772C43.0789 30.5497 41.1526 30.9942 40.0413 31.2906Z" fill="#8C8C8C"/>
<path d="M28.53 16.3977C28.3553 14.8252 27.0255 11.7382 26.5645 10.2822C27.0983 10.2822 28.6902 10.3554 29.3308 11.5201C29.9714 12.6849 29.0639 15.2571 28.53 16.3977Z" fill="#8C8C8C"/>
<path d="M28.1429 11.6183L28.1312 11.5121L28.0464 11.4471C26.8665 10.5433 26.3889 9.20229 26.678 7.95209C26.9663 6.70466 28.0323 5.49356 30.0513 4.89313C33.3103 3.92394 35.8257 4.93688 36.6465 5.53249L36.7121 5.58015H36.7933C39.7346 5.58015 41.1608 6.60535 41.7966 7.81478C42.4456 9.04905 42.314 10.5517 41.9787 11.5672L41.9661 11.6054V11.6456C41.9661 12.7646 41.8622 15.1219 41.706 17.3145C41.6279 18.4102 41.537 19.4612 41.4398 20.2931C41.3912 20.7093 41.3414 21.0679 41.2913 21.3485C41.2396 21.6384 41.1917 21.8194 41.1549 21.8992C41.066 22.0914 40.79 22.485 40.3753 22.9835C39.9672 23.4741 39.4422 24.0459 38.8743 24.5897C38.3056 25.1343 37.6995 25.6455 37.1293 26.0189C36.5493 26.3986 36.0447 26.6099 35.6698 26.6099C35.2913 26.6099 34.7349 26.389 34.0765 25.9973C33.4301 25.6128 32.7257 25.0887 32.064 24.5361C31.4028 23.984 30.7898 23.4081 30.3263 22.9231C30.0944 22.6804 29.9023 22.4629 29.761 22.2843C29.6129 22.0971 29.5401 21.9762 29.5206 21.921C29.5006 21.8642 29.467 21.7164 29.4224 21.4716C29.3792 21.2346 29.3288 20.9245 29.273 20.5574C29.1616 19.8234 29.0297 18.8674 28.8931 17.8242C28.6199 15.7381 28.3281 13.3081 28.1429 11.6183Z" fill="#F5F5F5" stroke="#8E8E8E" stroke-width="0.5"/>
<path d="M41.489 7.07965C42.0715 11.8116 31.5871 14.9031 26.2013 13.4859C15.1347 10.574 25.3428 10.301 25.91 8.39003C26.9293 4.95548 28.8948 3.00293 33.3355 3.00293C39.4506 3.00293 41.489 4.5467 41.489 7.07965Z" fill="#8C8C8C"/>
<path d="M42.5066 11.3747C41.6939 13.2092 41.4045 11.3103 39.0851 10.2827C36.7657 9.25512 33.7469 8.78709 34.5596 6.95256C35.3724 5.11804 37.9115 4.46387 40.2309 5.49144C42.5504 6.519 43.3194 9.54014 42.5066 11.3747Z" fill="#8C8C8C"/>
</g>
</svg>
