<svg width="72" height="89" viewBox="0 0 72 89" fill="none" xmlns="http://www.w3.org/2000/svg">
<mask id="mask0_1886_7677" style="mask-type:alpha" maskUnits="userSpaceOnUse" x="0" y="0" width="72" height="89">
<rect width="72" height="89" rx="20" fill="#E1FF67"/>
</mask>
<g mask="url(#mask0_1886_7677)">
<path d="M34.5329 88.556C33.4699 91.691 33 92.5029 32.6447 93.5029L25 95.0029C24.7669 94.653 25 92.5029 25 91.0029V76.8697C25 72.2728 25.2518 70.0029 26 64.0029C26.5057 59.9472 26.1632 49.4491 26 48.0029C25.5804 49.8923 23.7587 59.213 22.5 63.5029C21.9358 65.4258 20.1738 71.2947 19.8475 72.531C20.1272 72.671 21.1762 73.5807 21.0363 74.6304C20.8964 75.68 21.1762 76.8697 21.386 77.9193C21.5957 78.969 21.386 80.6485 20.6867 80.6485C19.9873 80.6485 19.8475 78.969 19.8475 78.2692C19.8475 77.7094 19.4745 77.1029 19.288 76.8697C19.0782 77.0796 19.2181 79.1789 19.288 79.8087C19.358 80.4385 19.8475 81.4882 20.6867 81.9081C21.5258 82.328 21.8055 83.1677 21.386 83.1677C20.9664 83.1677 18.9384 82.9578 18.5887 81.6982C18.2391 80.4385 17.26 79.7388 17.0502 76.3798C16.8404 73.0209 17.3299 70.9915 17.7495 69.8719C18.1691 68.7522 18.6586 66.4429 18.9383 61.2646C19.218 56.0862 19.7075 54.4767 19.7775 53.7069C19.8474 52.9372 19.8474 51.6776 20.337 46.9191C20.8265 42.1605 20.6133 43.4832 21 40.0029C21.5 35.5029 23.5 33.5029 23.5 33.5029C23.5 33.5029 25.4435 31.9073 27.5 31.5029C29.5406 31.1016 31.3916 30.4826 33 29.5029C34.2867 28.7192 34.393 23.7796 34.2531 22.2168H40.477C40.407 26.6254 40.4396 28.86 42 30.0029C43.5 31.1016 43.5 31.0029 47.5 32.0029C51.6338 33.0364 53 36.0029 53.5 43.5029C53.6496 45.7471 54.2533 50.0029 54.9526 53.7069C55.401 56.0818 56.7708 62.3142 56.7708 65.8831C56.7708 69.452 57.3302 70.6416 57.4002 73.0209C57.4701 75.4001 57.3497 78.5232 57 79.5029C56.6503 80.4826 56.3497 82.9431 56 83.5029C55.6503 84.0628 54.8127 85.1883 54.2533 85.3982C53.6938 85.6082 53.2043 85.1883 53.7638 84.7684C54.3232 84.3486 54.8601 82.6226 55 81.5029C55.1119 80.6072 54.9301 79.4695 55 79.0029C54.7902 79.0496 54.3092 79.2629 54.2533 80.1586C54.1834 81.2783 53.4196 82.0029 53 82.0029C52.5804 82.0029 52.7148 80.5785 52.9945 79.9487C53.2743 79.3189 52.9945 77.5694 52.9945 76.4498C52.9945 75.5541 54.6029 73.4407 54.9526 73.0209C54.9526 70.5716 51.7692 63.9237 51 61.2646C50.2308 58.6054 49.4281 56.1562 49.1484 53.7069C48.9246 51.7475 48.7288 48.0854 48.6588 46.4992C48.5889 48.2486 48.5 56.7536 48.5 58.5029C48.5 61.2493 48.9009 63.877 49.1484 69.8719C49.3601 75.0029 49.0658 78.2127 48.5 85.3982C47.8516 93.6327 48.5 94.0029 47.5 97.0029L39 96.0029C39 93.0029 38.1693 92.0029 38.1693 87.5763C38.1693 84.0211 37.9828 77.4152 38.1693 76.039L37.5399 76.3889C36.9804 78.1383 35.5958 85.421 34.5329 88.556Z" fill="#F5F5F5" stroke="#8E8E8E" stroke-width="0.5" stroke-linejoin="round"/>
<ellipse cx="37.5" cy="65" rx="0.5" ry="1" fill="#8C8C8C"/>
<path d="M30.1634 16.7875C29.9836 15.1693 28.6151 11.9925 28.1406 10.4941C28.69 10.4941 30.3282 10.5694 30.9875 11.7681C31.6467 12.9668 30.7128 15.6138 30.1634 16.7875Z" fill="#8C8C8C"/>
<path d="M29.7563 11.8689L29.7447 11.7627L29.6598 11.6977C28.4435 10.766 27.9508 9.38317 28.2489 8.09359C28.5464 6.80678 29.6458 5.55876 31.7254 4.94028C35.0815 3.94221 37.6725 4.98513 38.5188 5.59933L38.5845 5.647H38.6657C41.6944 5.647 43.165 6.70282 43.821 7.95053C44.4901 9.2231 44.3543 10.7717 44.0088 11.8178L43.9962 11.856V11.8962C43.9962 13.048 43.8894 15.4741 43.7286 17.7306C43.6482 18.8582 43.5546 19.94 43.4546 20.7962C43.4046 21.2246 43.3533 21.5938 43.3017 21.8828C43.2485 22.181 43.1991 22.3682 43.1608 22.4512C43.0688 22.65 42.7842 23.0557 42.3575 23.5687C41.9374 24.0738 41.3968 24.6624 40.8123 25.2223C40.2268 25.7829 39.6027 26.3093 39.0154 26.6938C38.4183 27.0847 37.8975 27.3032 37.5095 27.3032C37.1179 27.3032 36.5438 27.0749 35.8661 26.6718C35.2005 26.2759 34.4752 25.7362 33.7941 25.1674C33.1135 24.5991 32.4824 24.0062 32.0053 23.5069C31.7665 23.2571 31.5686 23.0331 31.423 22.849C31.2706 22.6563 31.195 22.5311 31.1745 22.473C31.1537 22.4139 31.119 22.2612 31.0731 22.0095C31.0286 21.7654 30.9767 21.4463 30.9194 21.0684C30.8047 20.313 30.669 19.3292 30.5284 18.2556C30.2472 16.1087 29.9469 13.6079 29.7563 11.8689Z" fill="#F5F5F5" stroke="#8E8E8E" stroke-width="0.5"/>
<path d="M43.499 7.19828C44.0985 12.0679 33.309 15.2494 27.7665 13.791C16.3779 10.7943 26.883 10.5133 27.4667 8.54679C28.5157 5.0123 30.5384 3.00293 35.1083 3.00293C41.4014 3.00293 43.499 4.59162 43.499 7.19828Z" fill="#8C8C8C"/>
<path d="M44.5466 11.6186C43.7102 13.5065 43.4124 11.5523 41.0255 10.4948C38.6386 9.43734 35.532 8.95569 36.3684 7.06778C37.2048 5.17987 39.8178 4.50666 42.2047 5.56413C44.5916 6.6216 45.383 9.73065 44.5466 11.6186Z" fill="#8C8C8C"/>
</g>
</svg>
