<svg width="72" height="89" viewBox="0 0 72 89" fill="none" xmlns="http://www.w3.org/2000/svg">
<mask id="mask0_1880_7102" style="mask-type:alpha" maskUnits="userSpaceOnUse" x="0" y="0" width="72" height="89">
<rect width="72" height="89" rx="20" fill="#414141"/>
</mask>
<g mask="url(#mask0_1880_7102)">
<path d="M53.0256 33.6231C51.4251 29.9804 45.9217 30.8421 43.9158 30.8729C42.1375 34.2545 46.8639 36.7886 47.7694 38.4693C47.9385 42.3157 49.8257 50.0209 50.7482 53.3926C51.2351 56.6402 52.4504 60.8019 54.0157 63.1418C55.2679 65.0137 56.1704 69.757 56.4651 71.8947C55.9688 72.3466 55.6628 73.4951 55.518 74.3595C55.3426 75.4061 55.4606 77.9949 55.7368 78.8087C55.9477 79.43 56.0509 79.7923 56.4651 79.43C56.8793 79.0677 56.7444 78.2482 56.886 77.5538C56.9992 76.9983 57.5351 76.665 57.7889 76.5678C58.1474 76.8962 58.3795 78.2624 58.305 78.5237C58.2305 78.7851 57.7891 80.1367 56.5 80.9961C55 81.9961 56.2422 82.082 56.5 81.9961C58 81.4961 58.5075 81.0339 59 80.4961C59.4925 79.9583 60.2166 78.9558 60.2571 77.9217C60.2896 77.0945 59.5825 74.9692 59.2249 74.01C58.3936 68.799 58.0935 58.0591 57.4462 55.0767C56.7989 52.0943 55.5856 51.8896 55.4459 48.7128C55.3062 45.536 55.5179 39.2952 53.0256 33.6231Z" fill="#F5F5F5" stroke="url(#paint0_linear_1880_7102)" stroke-width="0.5"/>
<path d="M20.4548 35.077C21.4842 30.6156 26.6188 31.0433 28.6173 31.2173C30.1496 34.7172 27.7373 38.4302 26.7142 40.042C26.2708 43.8666 23.8381 51.4173 22.6772 54.7145C21.9597 57.919 20.4503 61.9834 18.7219 64.2055C17.3391 65.9832 16.1002 70.6499 15.6536 72.7611C16.1163 73.2473 16.4137 74.6739 16.4137 75.4772C16.4137 76.3537 15.9853 78.8558 15.8863 79.7095C15.7873 80.5631 15.3667 81.2065 14.9794 80.8156C14.5922 80.4246 14.9212 79.0785 14.8297 78.3757C14.7564 77.8135 14.2457 77.4428 13.9995 77.3278C13.6184 77.6297 13.2893 78.9758 13.345 79.2418C13.4007 79.5078 13.1081 80.8156 14.5 81.4961C15.8919 82.1766 15.2718 82.9961 15 82.9961C14.498 82.9961 12.9528 82.0677 12.5 81.4961C12.0472 80.9245 11.4074 79.5363 11.4408 78.502C11.4675 77.6745 12.3246 75.6051 12.7498 74.6739C13.9511 69.5356 15.0174 58.8446 15.8761 55.916C16.7347 52.9874 17.9595 52.8699 18.3257 49.7112C18.6919 46.5525 19.3367 39.9232 20.4548 35.077Z" fill="#F5F5F5" stroke="url(#paint1_linear_1880_7102)" stroke-width="0.5"/>
<path d="M20.7137 80.7197C22.327 86.007 22.1745 86.0481 24.4169 90.4311H33.7898C34.5628 86.3112 34.7091 80.0321 34.0346 76.3366C34.6231 76.5945 35.9253 76.4226 36.7847 76.0788C36.4755 81.8467 38.1601 87.8561 39.1586 90.4311H48.4728C50.1056 86.5637 51.8244 79.2587 52.4262 72.4693C52.9676 66.3609 51.4725 59.7499 49.2716 56.1863C48.2879 54.5934 48.043 52.0151 49.2716 49.3509C49.8836 49.122 51.4725 48.4884 51.4725 45.9961C51.4725 43.5038 50.7661 42.054 50.5 37.9961C50.5 32.8582 50.5529 30.9495 48.4728 30.9495C43.0584 30.9495 42.5428 30.6156 41.7063 29.4124C40.9949 28.3892 40.5536 24.9126 40.7469 23.2246H32.7454C33.5184 24.4263 33.7355 28.1689 32.9402 29.4124C31.4563 31.7328 30.2504 30.7023 25.6123 31.3031C20.9742 31.904 21.1434 33.6236 21.1434 40.6708C21.1434 45.6147 22.0027 47.6321 24.2372 49.0071C25.5261 51.9609 25.0301 54.763 24.2371 56.57C18.9947 68.5159 19.1665 75.6491 20.7137 80.7197Z" fill="#F5F5F5" stroke="url(#paint2_linear_1880_7102)" stroke-width="0.5"/>
<mask id="mask1_1880_7102" style="mask-type:alpha" maskUnits="userSpaceOnUse" x="19" y="23" width="34" height="68">
<path d="M20.7137 80.7197C22.327 86.007 22.1745 86.0481 24.4169 90.4311H33.7898C34.5628 86.3112 34.7091 80.0321 34.0346 76.3366C34.6231 76.5945 35.9253 76.4226 36.7847 76.0788C36.4755 81.8467 38.1601 87.8561 39.1586 90.4311H48.4728C50.1056 86.5637 51.8244 79.2587 52.4262 72.4693C52.9676 66.3609 51.4725 59.7499 49.2716 56.1863C48.2879 54.5934 48.043 52.0151 49.2716 49.3509C49.8836 49.122 51.4725 48.4884 51.4725 45.9961C51.4725 43.5038 50.7661 42.054 50.5 37.9961C50.5 32.8582 50.5529 30.9495 48.4728 30.9495C43.0584 30.9495 42.5428 30.6156 41.7063 29.4124C40.9949 28.3892 40.5536 24.9126 40.7469 23.2246H32.7454C33.5184 24.4263 33.7355 28.1689 32.9402 29.4124C31.4563 31.7328 30.2504 30.7023 25.6123 31.3031C20.9742 31.904 21.1434 33.6236 21.1434 40.6708C21.1434 45.6147 22.0027 47.6321 24.2372 49.0071C25.5261 51.9609 25.0301 54.763 24.2371 56.57C18.9947 68.5159 19.1665 75.6491 20.7137 80.7197Z" fill="#F5F5F5"/>
</mask>
<g mask="url(#mask1_1880_7102)">
<path d="M21.4983 49.0111C21.4983 52.1487 20.7238 53.9957 23.5 53.9957C29.8764 53.9957 32.5 48.6337 32.5 45.4961C32.5 42.3585 28.684 42.9957 25.5331 42.9957C22.3822 42.9957 21.4983 45.8734 21.4983 49.0111Z" fill="#8C8C8C"/>
<path d="M51.0017 49.0648C51.0017 52.2024 51.7762 54.0494 49 54.0494C42.6236 54.0494 40 48.6874 40 45.5498C40 42.4122 43.816 43.0494 46.9669 43.0494C50.1178 43.0494 51.0017 45.9272 51.0017 49.0648Z" fill="#8C8C8C"/>
</g>
<path d="M25.5009 31.4956C21.5009 31.8956 20.5009 34.6623 20.5009 35.9956C20.4285 36.6033 20.4708 43.2491 20.5009 46.4961C23.6676 45.6626 30.2009 43.5956 31.0009 41.9956C32.0009 39.9956 30.5009 30.9956 25.5009 31.4956Z" fill="#F5F5F5"/>
<path d="M43.4999 30.9968C53.9999 29.9961 53.2255 35.2576 53.2255 36.5909C53.2979 37.1986 53.0302 47.2491 53 50.4961C49.8333 49.6626 43.5255 44.191 42.7255 42.591C41.7255 40.591 34.9798 31.8088 43.4999 30.9968Z" fill="#F5F5F5"/>
<circle cx="26.6457" cy="45.8557" r="5.6457" fill="#8C8C8C"/>
<path d="M35.5 45.4961C35.5 48.6141 29.9317 50.8363 26.8137 50.8363C23.6956 50.8363 21.168 48.3087 21.168 45.1906C21.168 42.0726 23.6956 35.9961 26.8137 35.9961C29.9317 35.9961 35.5 42.3781 35.5 45.4961Z" fill="#F5F5F5"/>
<circle cx="45.8117" cy="45.8557" r="5.6457" fill="#8C8C8C"/>
<path d="M51.2914 45.1906C51.2914 48.3087 48.7637 50.8363 45.6457 50.8363C42.5277 50.8363 36.5 47.6141 36.5 44.4961C36.5 41.3781 42.5277 36.9961 45.6457 36.9961C48.7637 36.9961 51.2914 42.0726 51.2914 45.1906Z" fill="#F5F5F5"/>
<path d="M36.0905 59.9671C36.189 60.6984 36.1212 61.3111 35.7595 61.3598C35.3977 61.4085 35.0246 60.8552 34.9261 60.124C34.8406 59.4891 35.2757 58.3031 35.6375 58.2544C35.9992 58.2056 35.992 59.2359 36.0905 59.9671Z" fill="#8C8C8C"/>
<path d="M47.0881 26.2626C38.5683 21.2146 30.7907 22.2179 26.7567 23.3505C25.3048 0.538088 37.8907 1.0233 41.4236 4.6265C49.5088 4.62656 48.0562 19.4671 47.0881 26.2626Z" fill="#8C8C8C"/>
<path d="M44.378 18.0839C44.2212 20.7389 42.8647 23.0834 41.2354 24.7506C40.4217 25.5833 39.5458 26.2409 38.7286 26.68C37.9055 27.1224 37.1663 27.3303 36.6199 27.298C36.0735 27.2657 35.3639 26.9722 34.5986 26.436C33.8389 25.9037 33.0465 25.1475 32.3365 24.2248C30.9149 22.3774 29.844 19.8894 30.0008 17.2344C30.0395 16.5803 30.0585 15.9402 30.0768 15.3246C30.0778 15.2936 30.0787 15.2628 30.0796 15.232C30.0988 14.5865 30.1183 13.9695 30.1597 13.3843C30.2427 12.2102 30.4126 11.1918 30.8256 10.3651C31.2329 9.5499 31.8835 8.90751 32.9631 8.49455C34.0532 8.07761 35.588 7.89206 37.759 8.02034C39.9299 8.14861 41.4322 8.51361 42.4656 9.05601C43.489 9.59324 44.0595 10.3078 44.368 11.1653C44.6808 12.0348 44.7295 13.0661 44.6737 14.2418C44.6458 14.8279 44.5925 15.4428 44.5356 16.0861L44.5275 16.1784C44.4732 16.7919 44.4167 17.4298 44.378 18.0839Z" fill="#F5F5F5" stroke="#8E8E8E" stroke-width="0.5"/>
<path d="M46.2664 14.1645C36.0706 12.5221 32.0409 10.1061 29.0977 10.7554C29.4247 8.96976 31.7465 5.39844 38.4178 5.39844C45.0891 5.39844 46.4299 11.2425 46.2664 14.1645Z" fill="#8C8C8C"/>
</g>
<defs>
<linearGradient id="paint0_linear_1880_7102" x1="55.7176" y1="37.107" x2="76.8249" y2="30.8356" gradientUnits="userSpaceOnUse">
<stop offset="0.0208333" stop-color="#8C8C8C"/>
<stop offset="0.817708" stop-color="#8C8C8C"/>
<stop offset="0.817808" stop-color="#8C8C8C" stop-opacity="0"/>
</linearGradient>
<linearGradient id="paint1_linear_1880_7102" x1="18.5812" y1="37.0136" x2="0.753688" y2="31.1311" gradientUnits="userSpaceOnUse">
<stop offset="0.0208333" stop-color="#8C8C8C"/>
<stop offset="0.817708" stop-color="#8C8C8C"/>
<stop offset="0.817808" stop-color="#8C8C8C" stop-opacity="0"/>
</linearGradient>
<linearGradient id="paint2_linear_1880_7102" x1="25.8788" y1="32.0351" x2="-16.8554" y2="13.8235" gradientUnits="userSpaceOnUse">
<stop offset="0.0208333" stop-color="#8C8C8C"/>
<stop offset="0.817708" stop-color="#8C8C8C"/>
<stop offset="0.817808" stop-color="#8C8C8C" stop-opacity="0"/>
</linearGradient>
</defs>
</svg>
