<svg width="72" height="89" viewBox="0 0 72 89" fill="none" xmlns="http://www.w3.org/2000/svg">
<mask id="mask0_1880_7100" style="mask-type:alpha" maskUnits="userSpaceOnUse" x="0" y="0" width="72" height="89">
<rect width="72" height="89" rx="20" fill="#414141"/>
</mask>
<g mask="url(#mask0_1880_7100)">
<path d="M54.179 81.6314C54.2145 82.9819 53.3591 82.8818 52.927 82.6629C53.1203 81.5539 53.0375 81.1546 53.1194 80.0373C53.2013 78.92 52.5408 78.7593 53.4182 75.9592C54.2957 73.1592 53.672 72.4957 53.159 70.324C52.6459 68.1522 49.2913 60.3463 48.9183 57.7915C48.5453 55.2368 48.6478 53.1442 48.3125 51.6032C47.9773 50.0622 47.2004 48.4327 46.4134 43.882C45.6265 39.3312 45.8466 31.2215 49.3759 31.9856C52.9052 32.7497 53.16 48.1393 53.3938 52.5934C53.6277 57.0475 55.8015 68.6642 56.3351 70.5567C56.8686 72.4492 56.6253 72.7121 56.6385 74.061C56.6517 75.4099 57.314 78.6036 57.2771 79.1064C57.2403 79.6092 56.7586 81.5958 56.4227 82.3574C56.0867 83.1191 54.8863 84.2106 53.958 84.648C53.0296 85.0855 53.2727 84.5809 53.4376 84.1044C53.7219 83.2828 54.7974 83.3132 55.0869 81.4733C55.2547 80.4072 55.5 79.499 54.5861 79.1339C54.4356 79.4037 54.1435 80.2809 54.179 81.6314Z" fill="#F5F5F5"/>
<path fill-rule="evenodd" clip-rule="evenodd" d="M39.0906 89.9961H50.5663C48.6674 86.6145 45.0174 78.5977 43.7431 75.7988C43.5996 75.4836 43.4862 75.2345 43.4088 75.0657C42.5021 73.0874 42.8474 71.5004 43.1076 70.3047C43.1215 70.2408 43.1351 70.1781 43.1483 70.1165C43.3567 69.1441 46.4767 57.7292 48.0107 52.1433C48.1008 52.0813 48.2029 52.0137 48.3139 51.9402C48.3327 51.9278 48.3517 51.9152 48.3709 51.9025C48.4984 52.6266 48.549 53.4611 48.6059 54.3979C48.6675 55.4126 48.7364 56.5472 48.9181 57.7915C49.1351 59.2781 50.3618 62.543 51.4507 65.4411C52.233 67.5232 52.9442 69.4159 53.1587 70.3239C53.2637 70.7683 53.3733 71.1495 53.4737 71.4989C53.8641 72.8566 54.1159 73.7321 53.418 75.9592C52.8145 77.885 52.9385 78.5623 53.0481 79.161C53.0979 79.4328 53.1447 79.6884 53.1191 80.0372C53.0895 80.4413 53.0815 80.7515 53.0741 81.0353C53.061 81.5362 53.0501 81.9549 52.9267 82.6629C52.8302 83.2166 54.2142 82.9819 54.1788 81.6313C54.1433 80.2808 54.4354 79.4036 54.5859 79.1338C55.4734 79.0028 55.1856 80.8231 55.0146 81.9046C55.0095 81.9368 55.0046 81.9682 54.9997 81.999C54.8778 82.7738 54.4656 83.0816 54.0859 83.365C53.8127 83.5691 53.5563 83.7605 53.4373 84.1044C53.3008 84.499 53.2504 85.1449 54.1788 84.7075C55.1071 84.27 56.0865 83.1191 56.4224 82.3574C56.7583 81.5957 57.24 79.6091 57.2768 79.1063C57.2928 78.889 57.178 78.1688 57.0416 77.3121C56.8624 76.1871 56.6457 74.8267 56.6382 74.061C56.6347 73.7015 56.6494 73.4191 56.6628 73.1625C56.6995 72.4562 56.7262 71.9448 56.3348 70.5566C55.8012 68.6641 53.6274 57.0474 53.3936 52.5933C53.3697 52.1391 53.3457 51.571 53.3179 50.9164C53.1235 46.327 52.7487 37.4801 51.0044 33.7182C50.4405 32.2245 49.7994 31.472 47.1424 31.3915C44.2771 31.3047 40.804 30.5232 40.1962 27.6579C39.8007 25.7932 40.5232 21.7302 40.8532 19.8744C40.9289 19.4489 40.9839 19.1394 41.0001 18.999L34.0315 23.7507C34.263 25.4004 33.9373 28.5152 32.9027 29.6549C32.8363 29.728 32.7762 29.8 32.7173 29.8706C32.1492 30.5509 31.6904 31.1003 26.8096 31.2505C23.5593 31.3505 23.1845 33.3569 22.9368 34.6824C22.9194 34.7757 22.9026 34.8657 22.8854 34.9514C22.3182 37.7876 23.8475 39.3336 24.7002 40.1956C24.8152 40.3118 24.9178 40.4155 25.0014 40.5084C25.1821 40.7091 25.3605 40.9061 25.5363 41.1002C28.4014 44.2637 30.5735 46.6621 30.8189 52.1433C31.0794 57.9607 29.6032 63.6913 26.7379 66.9039C23.8727 70.1165 21.8757 72.6345 21.4415 76.0208C21.0074 79.4071 21.3923 87.4781 22.0001 89.9961H32.0721C32.3342 89.1538 32.7013 85.2453 32.9844 82.2319C33.139 80.5857 33.2686 79.2066 33.3422 78.7403C34.5025 82.3041 38.3265 88.8847 39.0906 89.9961Z" fill="#F5F5F5"/>
<path d="M50.5663 89.9961V90.2461H50.9934L50.7843 89.8737L50.5663 89.9961ZM39.0906 89.9961L38.8846 90.1377L38.9591 90.2461H39.0906V89.9961ZM43.7431 75.7988L43.9706 75.6952L43.9706 75.6952L43.7431 75.7988ZM43.4088 75.0657L43.1815 75.1699L43.1815 75.1699L43.4088 75.0657ZM43.1076 70.3047L42.8633 70.2515L42.8633 70.2515L43.1076 70.3047ZM43.1483 70.1165L43.3928 70.1689L43.3928 70.1689L43.1483 70.1165ZM48.0107 52.1433L47.869 51.9372L47.7938 51.989L47.7696 52.0771L48.0107 52.1433ZM48.3139 51.9402L48.4519 52.1487L48.4519 52.1487L48.3139 51.9402ZM48.3709 51.9025L48.6171 51.8591L48.551 51.4833L48.2328 51.694L48.3709 51.9025ZM48.6059 54.3979L48.3564 54.413L48.3564 54.413L48.6059 54.3979ZM48.9181 57.7915L48.6707 57.8276L48.6707 57.8276L48.9181 57.7915ZM51.4507 65.4411L51.6847 65.3531L51.6847 65.3531L51.4507 65.4411ZM53.1587 70.3239L52.9154 70.3814L52.9154 70.3814L53.1587 70.3239ZM53.4737 71.4989L53.714 71.4298L53.714 71.4298L53.4737 71.4989ZM53.418 75.9592L53.6565 76.0339L53.6565 76.0339L53.418 75.9592ZM53.0481 79.161L53.2941 79.116L53.2941 79.116L53.0481 79.161ZM53.1191 80.0372L52.8698 80.019L52.8698 80.019L53.1191 80.0372ZM53.0741 81.0353L53.324 81.0418L53.324 81.0418L53.0741 81.0353ZM52.9267 82.6629L52.6805 82.6199L52.6805 82.6199L52.9267 82.6629ZM54.1788 81.6313L53.9288 81.6379L53.9288 81.6379L54.1788 81.6313ZM54.5859 79.1338L54.5494 78.8865L54.4275 78.9044L54.3675 79.012L54.5859 79.1338ZM55.0146 81.9046L55.2616 81.9437L55.2616 81.9437L55.0146 81.9046ZM54.9997 81.999L54.7528 81.9601L54.7528 81.9601L54.9997 81.999ZM54.0859 83.365L54.2355 83.5654L54.2355 83.5654L54.0859 83.365ZM53.4373 84.1044L53.6736 84.1861L53.6736 84.1861L53.4373 84.1044ZM56.4224 82.3574L56.1936 82.2565L56.1936 82.2565L56.4224 82.3574ZM57.2768 79.1063L57.0275 79.0881L57.0275 79.0881L57.2768 79.1063ZM57.0416 77.3121L57.2885 77.2728L57.2885 77.2728L57.0416 77.3121ZM56.6382 74.061L56.8882 74.0585L56.8882 74.0585L56.6382 74.061ZM56.6628 73.1625L56.4131 73.1495L56.4131 73.1495L56.6628 73.1625ZM56.3348 70.5566L56.5754 70.4888L56.5754 70.4888L56.3348 70.5566ZM53.3936 52.5933L53.1439 52.6064L53.1439 52.6064L53.3936 52.5933ZM53.3179 50.9164L53.0682 50.927L53.0682 50.927L53.3179 50.9164ZM51.0044 33.7182L50.7705 33.8065L50.7737 33.815L50.7776 33.8234L51.0044 33.7182ZM47.1424 31.3915L47.1348 31.6414L47.1348 31.6414L47.1424 31.3915ZM40.1962 27.6579L40.4408 27.606L40.4408 27.606L40.1962 27.6579ZM40.8532 19.8744L40.6071 19.8306L40.6071 19.8306L40.8532 19.8744ZM41.0001 18.999L41.2484 19.0277L41.3111 18.4843L40.8593 18.7925L41.0001 18.999ZM34.0315 23.7507L33.8906 23.5441L33.7623 23.6316L33.7839 23.7854L34.0315 23.7507ZM32.9027 29.6549L32.7176 29.4869L32.7176 29.4869L32.9027 29.6549ZM32.7173 29.8706L32.9092 30.0309L32.9092 30.0309L32.7173 29.8706ZM26.8096 31.2505L26.802 31.0006L26.802 31.0006L26.8096 31.2505ZM22.9368 34.6824L22.6911 34.6365L22.6911 34.6365L22.9368 34.6824ZM22.8854 34.9514L23.1306 35.0004L23.1306 35.0004L22.8854 34.9514ZM24.7002 40.1956L24.878 40.0198L24.878 40.0198L24.7002 40.1956ZM25.0014 40.5084L24.8156 40.6756L24.8156 40.6756L25.0014 40.5084ZM25.5363 41.1002L25.7216 40.9323L25.7216 40.9323L25.5363 41.1002ZM30.8189 52.1433L31.0687 52.1321L31.0687 52.1321L30.8189 52.1433ZM26.7379 66.9039L26.5514 66.7375L26.5514 66.7375L26.7379 66.9039ZM21.4415 76.0208L21.6895 76.0526L21.4415 76.0208ZM22.0001 89.9961L21.7571 90.0548L21.8033 90.2461H22.0001V89.9961ZM32.0721 89.9961V90.2461H32.2562L32.3108 90.0704L32.0721 89.9961ZM32.9844 82.2319L33.2333 82.2552L33.2333 82.2552L32.9844 82.2319ZM33.3422 78.7403L33.5799 78.6629L33.0953 78.7013L33.3422 78.7403ZM50.5663 89.7461H39.0906V90.2461H50.5663V89.7461ZM43.5156 75.9024C44.7875 78.696 48.4429 86.7252 50.3483 90.1185L50.7843 89.8737C48.8919 86.5038 45.2474 78.4995 43.9706 75.6952L43.5156 75.9024ZM43.1815 75.1699C43.2587 75.3383 43.372 75.587 43.5156 75.9024L43.9706 75.6952C43.8272 75.3801 43.7136 75.1307 43.6361 74.9615L43.1815 75.1699ZM42.8633 70.2515C42.6016 71.4541 42.2384 73.1121 43.1815 75.1699L43.6361 74.9615C42.7658 73.0627 43.0932 71.5467 43.3519 70.3578L42.8633 70.2515ZM42.9039 70.0642C42.8908 70.1253 42.8772 70.1876 42.8633 70.2515L43.3519 70.3578C43.3658 70.2941 43.3795 70.231 43.3928 70.1689L42.9039 70.0642ZM47.7696 52.0771C46.2377 57.6555 43.1142 69.0825 42.9039 70.0642L43.3928 70.1689C43.5992 69.2057 46.7158 57.8028 48.2517 52.2095L47.7696 52.0771ZM48.1759 51.7317C48.0654 51.8049 47.9613 51.8738 47.869 51.9372L48.1523 52.3493C48.2402 52.2888 48.3404 52.2225 48.4519 52.1487L48.1759 51.7317ZM48.2328 51.694C48.2136 51.7068 48.1947 51.7193 48.1759 51.7318L48.4519 52.1487C48.4706 52.1363 48.4897 52.1236 48.509 52.1109L48.2328 51.694ZM48.8555 54.3827C48.7988 53.4501 48.7476 52.6001 48.6171 51.8591L48.1247 51.9458C48.2492 52.6531 48.2993 53.4721 48.3564 54.413L48.8555 54.3827ZM49.1654 57.7554C48.9855 56.5229 48.9171 55.3981 48.8555 54.3827L48.3564 54.413C48.4179 55.427 48.4873 56.5715 48.6707 57.8276L49.1654 57.7554ZM51.6847 65.3531C51.14 63.9033 50.5624 62.366 50.0938 61.0056C49.6231 59.6388 49.2701 58.4721 49.1654 57.7554L48.6707 57.8276C48.7831 58.5975 49.152 59.8065 49.6211 61.1684C50.0924 62.5366 50.6726 64.0808 51.2167 65.529L51.6847 65.3531ZM53.402 70.2664C53.1828 69.3384 52.4632 67.4249 51.6847 65.3531L51.2167 65.529C52.0029 67.6214 52.7056 69.4934 52.9154 70.3814L53.402 70.2664ZM53.714 71.4298C53.6135 71.0802 53.5054 70.7043 53.402 70.2664L52.9154 70.3814C53.0219 70.8323 53.1331 71.2188 53.2335 71.5679L53.714 71.4298ZM53.6565 76.0339C54.0108 74.9035 54.1297 74.0983 54.1038 73.3938C54.078 72.6918 53.9082 72.1051 53.714 71.4298L53.2335 71.5679C53.4297 72.2504 53.5809 72.7803 53.6041 73.4122C53.6273 74.0417 53.5231 74.7877 53.1794 75.8844L53.6565 76.0339ZM53.2941 79.116C53.2401 78.8214 53.1864 78.527 53.2151 78.0736C53.2442 77.6153 53.3584 76.9853 53.6565 76.0339L53.1794 75.8844C52.8741 76.8589 52.7486 77.5304 52.7161 78.042C52.6834 78.5584 52.7465 78.902 52.8022 79.2061L53.2941 79.116ZM53.3685 80.0555C53.3966 79.6721 53.344 79.389 53.2941 79.116L52.8022 79.2061C52.8518 79.4766 52.8928 79.7047 52.8698 80.019L53.3685 80.0555ZM53.324 81.0418C53.3314 80.7584 53.3393 80.4533 53.3685 80.0555L52.8698 80.019C52.8397 80.4294 52.8316 80.7446 52.8242 81.0288L53.324 81.0418ZM53.173 82.7058C53.2996 81.9796 53.3109 81.5464 53.324 81.0418L52.8242 81.0288C52.8112 81.526 52.8007 81.9302 52.6805 82.6199L53.173 82.7058ZM53.9288 81.6379C53.944 82.216 53.6612 82.5208 53.4216 82.6358C53.2925 82.6978 53.1958 82.697 53.1586 82.6858C53.1436 82.6813 53.1532 82.6801 53.1639 82.6967C53.176 82.7153 53.1697 82.725 53.173 82.7058L52.6805 82.6199C52.6597 82.7391 52.6755 82.8627 52.7446 82.9691C52.8125 83.0735 52.914 83.1344 53.0147 83.1646C53.2087 83.223 53.4377 83.1828 53.6381 83.0865C54.0576 82.885 54.449 82.3972 54.4287 81.6248L53.9288 81.6379ZM54.3675 79.012C54.1894 79.3314 53.8925 80.2562 53.9288 81.6379L54.4287 81.6248C54.394 80.3054 54.6814 79.4758 54.8042 79.2556L54.3675 79.012ZM55.2616 81.9437C55.346 81.4096 55.4656 80.659 55.4471 80.0569C55.438 79.7603 55.3951 79.4606 55.2692 79.2368C55.2036 79.1202 55.1103 79.0152 54.9802 78.9484C54.849 78.8812 54.7021 78.8639 54.5494 78.8865L54.6224 79.3811C54.6915 79.3709 54.7298 79.3819 54.752 79.3933C54.7754 79.4053 54.8039 79.4295 54.8334 79.482C54.8979 79.5965 54.9388 79.7949 54.9473 80.0722C54.9641 80.6178 54.8542 81.3182 54.7677 81.8656L55.2616 81.9437ZM55.2467 82.0378C55.2515 82.0072 55.2565 81.9758 55.2616 81.9437L54.7677 81.8656C54.7626 81.8977 54.7576 81.9292 54.7528 81.9601L55.2467 82.0378ZM54.2355 83.5654C54.4226 83.4257 54.6465 83.26 54.8354 83.0215C55.0287 82.7775 55.1792 82.4665 55.2467 82.0378L54.7528 81.9601C54.6983 82.3062 54.5818 82.5365 54.4435 82.711C54.3009 82.891 54.1289 83.0209 53.9364 83.1647L54.2355 83.5654ZM53.6736 84.1861C53.7639 83.9251 53.9544 83.7752 54.2355 83.5654L53.9364 83.1647C53.6709 83.3629 53.3487 83.5959 53.2011 84.0226L53.6736 84.1861ZM54.0722 84.4813C53.8545 84.5839 53.727 84.6062 53.6626 84.6035C53.6338 84.6023 53.6252 84.5964 53.6266 84.5972C53.6289 84.5986 53.6294 84.6004 53.6275 84.5969C53.6194 84.5823 53.6064 84.537 53.6141 84.4481C53.6213 84.365 53.6441 84.2714 53.6736 84.1861L53.2011 84.0226C53.1623 84.1347 53.1276 84.2698 53.116 84.4051C53.1048 84.5346 53.1117 84.6974 53.19 84.8389C53.2796 85.0011 53.44 85.0946 53.6415 85.103C53.8245 85.1108 54.0389 85.0497 54.2853 84.9336L54.0722 84.4813ZM56.1936 82.2565C56.04 82.6049 55.7294 83.0604 55.3388 83.4847C54.9479 83.9093 54.4964 84.2815 54.0722 84.4813L54.2853 84.9336C54.7895 84.696 55.2918 84.274 55.7067 83.8233C56.1218 83.3724 56.4689 82.8716 56.6511 82.4583L56.1936 82.2565ZM57.0275 79.0881C57.011 79.314 56.8873 79.9155 56.7195 80.573C56.5526 81.2272 56.3524 81.8964 56.1936 82.2565L56.6511 82.4583C56.8282 82.0567 57.0369 81.3517 57.204 80.6966C57.3703 80.0446 57.5059 79.4014 57.5262 79.1246L57.0275 79.0881ZM56.7947 77.3514C56.8631 77.7806 56.9254 78.1721 56.9687 78.4834C57.0138 78.8072 57.0331 79.0117 57.0275 79.0881L57.5262 79.1246C57.5365 78.9836 57.5064 78.7193 57.464 78.4145C57.4198 78.0972 57.3566 77.7003 57.2885 77.2728L56.7947 77.3514ZM56.3882 74.0634C56.3959 74.8526 56.617 76.2362 56.7947 77.3514L57.2885 77.2728C57.1077 76.138 56.8954 74.8009 56.8882 74.0585L56.3882 74.0634ZM56.4131 73.1495C56.3997 73.4065 56.3846 73.6955 56.3882 74.0634L56.8882 74.0585C56.8848 73.7074 56.8991 73.4318 56.9124 73.1755L56.4131 73.1495ZM56.0942 70.6245C56.2874 71.3099 56.3747 71.7693 56.4105 72.1393C56.4462 72.5084 56.4315 72.796 56.4131 73.1495L56.9124 73.1755C56.9308 72.8227 56.9478 72.5014 56.9082 72.0912C56.8686 71.6819 56.7735 71.1915 56.5754 70.4888L56.0942 70.6245ZM53.1439 52.6064C53.2617 54.8504 53.8663 58.8821 54.5054 62.5782C55.1443 66.2728 55.8232 69.6634 56.0942 70.6245L56.5754 70.4888C56.3128 69.5573 55.638 66.1933 54.9981 62.493C54.3585 58.794 53.7592 54.7903 53.6432 52.5802L53.1439 52.6064ZM53.0682 50.927C53.0959 51.5812 53.12 52.1506 53.1439 52.6064L53.6432 52.5802C53.6195 52.1275 53.5955 51.5609 53.5677 50.9058L53.0682 50.927ZM50.7776 33.8234C51.63 35.6618 52.1574 38.7748 52.4937 42.0327C52.8288 45.2797 52.9709 48.6315 53.0682 50.927L53.5677 50.9058C53.4705 48.6119 53.328 45.2456 52.991 41.9813C52.6552 38.728 52.1231 35.5366 51.2312 33.613L50.7776 33.8234ZM47.1348 31.6414C48.4478 31.6812 49.2139 31.8871 49.7172 32.2313C50.2145 32.5713 50.4931 33.0717 50.7705 33.8065L51.2383 33.6299C50.9518 32.871 50.6279 32.2483 49.9995 31.8185C49.377 31.3929 48.494 31.1823 47.15 31.1416L47.1348 31.6414ZM39.9516 27.7098C40.2779 29.2476 41.375 30.2117 42.7233 30.796C44.0671 31.3783 45.6876 31.5975 47.1348 31.6414L47.15 31.1416C45.7319 31.0986 44.1832 30.8837 42.9221 30.3372C41.6657 29.7928 40.7223 28.9335 40.4408 27.606L39.9516 27.7098ZM40.6071 19.8306C40.4421 20.758 40.1777 22.2446 40.0043 23.7339C39.8322 25.2121 39.7443 26.7323 39.9516 27.7098L40.4408 27.606C40.2526 26.7188 40.3282 25.2751 40.5009 23.7917C40.6724 22.3194 40.9342 20.8466 41.0993 19.9181L40.6071 19.8306ZM40.7517 18.9704C40.7367 19.1009 40.6837 19.3995 40.6071 19.8306L41.0993 19.9181C41.174 19.4982 41.2311 19.1779 41.2484 19.0277L40.7517 18.9704ZM34.1723 23.9572L41.1409 19.2056L40.8593 18.7925L33.8906 23.5441L34.1723 23.9572ZM33.0878 29.823C33.3772 29.5041 33.6053 29.0619 33.7833 28.5684C33.9622 28.072 34.096 27.5085 34.1887 26.9338C34.3736 25.7874 34.399 24.5706 34.279 23.7159L33.7839 23.7854C33.8955 24.5805 33.8738 25.746 33.695 26.8542C33.6059 27.407 33.4787 27.939 33.3129 28.3987C33.1461 28.8614 32.9455 29.2359 32.7176 29.4869L33.0878 29.823ZM32.9092 30.0309C32.9685 29.9598 33.0254 29.8917 33.0878 29.823L32.7176 29.4869C32.6472 29.5644 32.5839 29.6403 32.5254 29.7104L32.9092 30.0309ZM26.8173 31.5004C29.2596 31.4252 30.6233 31.2501 31.4532 30.9986C31.873 30.8714 32.1639 30.7225 32.391 30.552C32.6163 30.3829 32.7682 30.1996 32.9092 30.0309L32.5254 29.7104C32.3823 29.8818 32.2638 30.0223 32.0908 30.1522C31.9196 30.2807 31.6842 30.4062 31.3082 30.5201C30.5465 30.7509 29.2404 30.9256 26.802 31.0006L26.8173 31.5004ZM23.1826 34.7283C23.3078 34.058 23.4563 33.2855 23.9442 32.6608C24.4194 32.0525 25.2482 31.5487 26.8173 31.5004L26.802 31.0006C25.1207 31.0524 24.137 31.6017 23.5502 32.353C22.9763 33.0878 22.8135 33.9813 22.6911 34.6365L23.1826 34.7283ZM23.1306 35.0004C23.1481 34.9129 23.1652 34.8213 23.1826 34.7283L22.6911 34.6365C22.6736 34.7301 22.6571 34.8185 22.6403 34.9024L23.1306 35.0004ZM24.878 40.0198C24.0328 39.1655 22.59 37.7035 23.1306 35.0004L22.6403 34.9024C22.0464 37.8718 23.6622 39.5017 24.5225 40.3714L24.878 40.0198ZM25.1872 40.3411C25.0989 40.243 24.9916 40.1347 24.878 40.0198L24.5225 40.3714C24.6387 40.4889 24.7368 40.5881 24.8156 40.6756L25.1872 40.3411ZM25.7216 40.9323C25.5458 40.7382 25.3676 40.5415 25.1872 40.3411L24.8156 40.6756C24.9966 40.8767 25.1752 41.0739 25.351 41.268L25.7216 40.9323ZM31.0687 52.1321C30.9444 49.3568 30.331 47.3486 29.3786 45.6314C28.4304 43.9216 27.1505 42.5101 25.7216 40.9323L25.351 41.268C26.7872 42.8538 28.0259 44.2232 28.9414 45.8739C29.8526 47.517 30.448 49.4485 30.5692 52.1544L31.0687 52.1321ZM26.9245 67.0703C29.8498 63.7903 31.3307 57.9844 31.0687 52.1321L30.5692 52.1544C30.8281 57.937 29.3565 63.5923 26.5514 66.7375L26.9245 67.0703ZM21.6895 76.0526C22.1126 72.7522 24.0558 70.2869 26.9245 67.0703L26.5514 66.7375C23.6897 69.9462 21.6387 72.5169 21.1936 75.989L21.6895 76.0526ZM22.2432 89.9374C21.9456 88.7048 21.6979 86.0798 21.5799 83.3234C21.462 80.5699 21.4753 77.7234 21.6895 76.0526L21.1936 75.989C20.9736 77.7045 20.9623 80.5867 21.0803 83.3447C21.1983 86.0999 21.4469 88.7694 21.7571 90.0548L22.2432 89.9374ZM32.0721 89.7461H22.0001V90.2461H32.0721V89.7461ZM32.7355 82.2085C32.5939 83.7157 32.4315 85.4441 32.2719 86.9009C32.192 87.6294 32.113 88.2881 32.0379 88.8161C31.9618 89.3509 31.892 89.7335 31.8334 89.9218L32.3108 90.0704C32.3832 89.8376 32.4576 89.4157 32.5329 88.8866C32.6092 88.3507 32.6888 87.686 32.7689 86.9554C32.9291 85.494 33.0918 83.7615 33.2333 82.2552L32.7355 82.2085ZM33.0953 78.7013C33.02 79.1777 32.8895 80.5689 32.7355 82.2085L33.2333 82.2552C33.3886 80.6024 33.5171 79.2354 33.5891 78.7793L33.0953 78.7013ZM39.2966 89.8545C38.9227 89.3106 37.781 87.3976 36.5852 85.1696C35.3889 82.9405 34.1525 80.4216 33.5799 78.6629L33.1045 78.8177C33.6922 80.6228 34.9479 83.1761 36.1447 85.4061C37.3421 87.6372 38.4944 89.5702 38.8846 90.1377L39.2966 89.8545Z" fill="url(#paint0_linear_1880_7100)"/>
<path d="M50.5662 89.9961H39.0905C38.3263 88.8847 34.5025 82.3042 33.3422 78.7404C33.1339 80.0602 32.4772 88.6937 32.072 89.9961H22C21.3922 87.4781 21.0074 79.4072 21.4416 76.0209C21.8757 72.6346 23.8727 70.1166 26.738 66.904C29.6032 63.6914 31.0794 57.9608 30.8189 52.1433C30.5585 46.3259 28.1277 43.9811 25.0014 40.5084C24.2979 39.727 22.2418 38.17 22.8855 34.9515C23.146 33.6491 23.3304 31.3576 26.8097 31.2506C32.1968 31.0848 32.1968 30.4327 32.9027 29.655C33.9373 28.5153 34.263 25.4005 34.0315 23.7507L39.8489 22.5352C39.7621 23.2877 39.71 25.3657 40.1962 27.658C40.804 30.5233 44.6348 31.9122 47.5001 31.999C50.3654 32.0859 50.3923 33.7625 51.0001 35.499C51.6079 37.2356 49.8256 40.4682 50 40.9961C50.3155 41.9512 51.1365 44.763 51.1365 48.2361C51.1365 50.2696 48.9369 51.5066 48.0107 52.1433C46.4767 57.7292 43.3567 69.1441 43.1484 70.1166C42.8879 71.3322 42.4537 72.9819 43.4088 75.0658C44.1729 76.7329 48.4534 86.2336 50.5662 89.9961Z" fill="#F5F5F5" stroke="url(#paint1_linear_1880_7100)" stroke-width="0.5"/>
<path d="M48.498 51.499C42.998 51.999 41.8314 48.8324 41.498 47.499C41.5 51.4941 45.0003 54.4941 47.5003 54.4941L48.498 51.499Z" fill="#8C8C8C"/>
<path d="M30.4999 49.994C35.7986 51.551 39.4139 48.7377 39.9995 47.4944C40.2037 51.6121 34.9999 54.4936 31 54.9941L30.9998 53.4942L30.4999 49.994Z" fill="#8C8C8C"/>
<ellipse cx="34.7052" cy="46.3491" rx="5.70522" ry="5.68116" fill="#8C8C8C"/>
<ellipse cx="34.8712" cy="45.6802" rx="5.70522" ry="5.68116" fill="#F5F5F5"/>
<path d="M26.691 66.6604L26.4872 66.9016L26.2992 66.6479C26.1781 66.4847 26.0962 66.2683 26.0371 66.0341C25.977 65.7965 25.9357 65.5209 25.9067 65.2249C25.8486 64.6334 25.8372 63.9352 25.8333 63.2498C25.8326 63.1135 25.8321 62.9777 25.8316 62.8432C25.8297 62.2966 25.8278 61.7717 25.8066 61.3182C25.7935 61.0363 25.7731 60.7883 25.7417 60.5849C25.7096 60.3764 25.669 60.236 25.6264 60.1555C25.5022 59.921 25.4122 59.7788 25.2915 59.6705C25.1742 59.5651 25.0088 59.4756 24.708 59.3919C24.1266 59.2302 23.1388 59.1142 21.2612 58.8937C21.1377 58.8792 21.0104 58.8642 20.8791 58.8488C18.8391 58.6088 16.3171 58.0064 14.1549 57.3935C11.9967 56.7818 10.1711 56.1522 9.52826 55.8515C8.78926 55.5058 8.04703 54.6105 7.61539 53.6696C7.39713 53.1938 7.24928 52.6878 7.22473 52.2108C7.20017 51.7336 7.29884 51.2667 7.59678 50.8992C7.73245 50.7318 8.0913 50.2297 8.62351 49.485C9.03991 48.9023 9.56244 48.1711 10.1672 47.3355C11.5383 45.4414 13.3195 43.029 15.2053 40.6548C17.0901 38.282 19.0839 35.9411 20.8801 34.193C21.7777 33.3193 22.6321 32.5876 23.4036 32.0735C24.1666 31.5651 24.8843 31.2449 25.5006 31.2485C29.0427 31.2692 31.4171 31.4046 33.0014 31.6057C34.5704 31.8049 35.4085 32.0726 35.8322 32.3928C36.056 32.5619 36.1771 32.7551 36.2151 32.9656C36.251 33.1647 36.2056 33.3476 36.1663 33.4802C36.1546 33.5195 36.1457 33.5474 36.1377 33.5727C36.1288 33.6005 36.121 33.6251 36.1116 33.6581C36.0969 33.7099 36.0913 33.7413 36.0905 33.7615C36.0905 33.7626 36.0904 33.7635 36.0904 33.7644C36.0946 33.7672 36.1008 33.7711 36.11 33.7757C36.8927 34.1678 37.4364 34.466 37.7748 34.694C37.9417 34.8064 38.0752 34.9125 38.1619 35.0149C38.2391 35.106 38.3466 35.2783 38.2541 35.4692C38.2137 35.5528 38.1478 35.6059 38.091 35.6393C38.0338 35.6731 37.97 35.6961 37.9084 35.713C37.7856 35.7469 37.6317 35.7669 37.4625 35.7804C37.157 35.8047 36.7545 35.8105 36.2987 35.8171C36.2472 35.8178 36.195 35.8186 36.1422 35.8194C35.0911 35.8351 33.7578 35.8659 32.4753 36.1138C31.1897 36.3624 29.9901 36.8229 29.1801 37.6715C27.7949 39.1228 26.4304 40.4038 25.4125 41.3217C24.9034 41.7807 24.4808 42.1493 24.1851 42.4032C24.0373 42.5302 23.9212 42.6286 23.842 42.6953C23.8023 42.7286 23.7719 42.7541 23.7513 42.7713L23.731 42.7882L23.72 42.7996L23.6592 42.8628C23.6058 42.9181 23.5273 42.9994 23.4264 43.1035C23.2246 43.3116 22.9334 43.6106 22.5756 43.9744C21.8602 44.7021 20.878 45.6896 19.8115 46.7285C18.7453 47.7671 17.5934 48.8586 16.5386 49.7936C15.7818 50.4646 15.0683 51.0611 14.4695 51.5C16.2146 51.656 18.3626 52.4012 20.3467 53.2511C22.6362 54.2319 24.7514 55.372 25.8598 55.9784C28.4922 56.8947 30.3096 58.7066 30.4855 60.7533C30.5522 61.5295 30.8405 62.4275 31.1004 63.237C31.1489 63.3881 31.1964 63.536 31.2413 63.6796C31.3795 64.1214 31.4975 64.5361 31.5211 64.8464C31.5327 64.9983 31.5258 65.1671 31.4527 65.3073C31.4134 65.3826 31.355 65.4495 31.2744 65.4966C31.1951 65.5429 31.1083 65.5618 31.023 65.5638C30.7785 65.5695 30.5441 65.4585 30.3425 65.3218C30.1363 65.182 29.9333 64.9937 29.7454 64.7987C29.5566 64.6027 29.3755 64.3917 29.2151 64.2031C29.1978 64.1827 29.1808 64.1626 29.164 64.1429C29.1019 64.0697 29.0438 64.0013 28.9898 63.9389L26.691 66.6604Z" fill="#F5F5F5" stroke="url(#paint2_linear_1880_7100)" stroke-width="0.5"/>
<path d="M26.691 66.6603L26.4873 66.9017L26.2992 66.6479C26.1782 66.4847 26.0962 66.2683 26.037 66.0342C25.9769 65.7965 25.9355 65.5209 25.9064 65.225C25.8481 64.6335 25.8365 63.9353 25.8324 63.2499C25.8315 63.1135 25.831 62.9776 25.8305 62.8431C25.8284 62.2965 25.8263 61.7718 25.805 61.3183C25.7917 61.0363 25.7713 60.7884 25.7399 60.585C25.7077 60.3764 25.667 60.236 25.6244 60.1555C25.5003 59.921 25.4103 59.7788 25.2896 59.6705C25.1722 59.5651 25.0069 59.4756 24.706 59.3919C24.1246 59.2302 23.1369 59.1142 21.2592 58.8937C21.1357 58.8792 21.0084 58.8642 20.8771 58.8488C18.8371 58.6088 16.3152 58.0064 14.1529 57.3935C11.9947 56.7818 10.1692 56.1522 9.5263 55.8515C8.78731 55.5058 8.04508 54.6105 7.61344 53.6696C7.39518 53.1938 7.24732 52.6878 7.22278 52.2108C7.19822 51.7336 7.29688 51.2667 7.59483 50.8992C7.7305 50.7318 8.08935 50.2297 8.62155 49.485C9.03796 48.9023 9.56048 48.1711 10.1653 47.3355C11.5363 45.4414 13.3176 43.029 15.2034 40.6548C17.0881 38.282 19.082 35.9411 20.8781 34.193C21.7758 33.3193 22.6302 32.5876 23.4017 32.0735C24.1646 31.5651 24.8824 31.2449 25.4986 31.2485C29.0407 31.2692 31.4151 31.4046 32.9994 31.6057C34.5685 31.8049 35.4065 32.0726 35.8303 32.3928C36.054 32.5619 36.1752 32.7551 36.2131 32.9656C36.249 33.1647 36.2037 33.3476 36.1643 33.4802C36.1527 33.5195 36.1438 33.5474 36.1357 33.5727C36.1269 33.6005 36.1191 33.6251 36.1097 33.6581C36.095 33.7099 36.0894 33.7413 36.0886 33.7615C36.0885 33.7626 36.0885 33.7635 36.0885 33.7644C36.0926 33.7672 36.0989 33.7711 36.108 33.7757C36.8907 34.1678 37.4345 34.466 37.7729 34.694C37.9398 34.8064 38.0733 34.9125 38.16 35.0149C38.2371 35.106 38.3447 35.2783 38.2522 35.4692C38.2117 35.5528 38.1458 35.6059 38.0891 35.6393C38.0318 35.6731 37.968 35.6961 37.9064 35.713C37.7836 35.7469 37.6298 35.7669 37.4605 35.7804C37.1551 35.8047 36.7526 35.8105 36.2968 35.8171C36.2453 35.8178 36.1931 35.8186 36.1402 35.8194C35.0892 35.8351 33.7558 35.8659 32.4734 36.1138C31.1877 36.3624 29.9882 36.8229 29.1782 37.6715C27.7929 39.1228 26.4284 40.4038 25.4106 41.3217C24.9015 41.7807 24.4788 42.1493 24.1832 42.4032C24.0353 42.5302 23.9193 42.6286 23.84 42.6953C23.8004 42.7286 23.7699 42.7541 23.7494 42.7713L23.729 42.7882L23.718 42.7996L23.6572 42.8628C23.6039 42.9181 23.5253 42.9994 23.4244 43.1035C23.2226 43.3116 22.9315 43.6106 22.5737 43.9744C21.8582 44.7021 20.8761 45.6896 19.8096 46.7285C18.7433 47.7671 17.5914 48.8586 16.5367 49.7936C15.7798 50.4646 15.0664 51.0611 14.4675 51.5C16.2127 51.656 18.3606 52.4012 20.3447 53.2511C22.6342 54.2319 24.7494 55.372 25.8578 55.9784C28.4902 56.8947 30.3077 58.7066 30.4835 60.7533C30.5502 61.5295 30.8385 62.4275 31.0984 63.237C31.1469 63.3881 31.1944 63.536 31.2393 63.6796C31.3775 64.1214 31.4956 64.5361 31.5192 64.8464C31.5307 64.9983 31.5239 65.1671 31.4507 65.3073C31.4115 65.3826 31.353 65.4495 31.2725 65.4966C31.1932 65.5429 31.1063 65.5618 31.0211 65.5638C30.7765 65.5695 30.5422 65.4585 30.3406 65.3218C30.1344 65.182 29.9314 64.9937 29.7435 64.7987C29.5546 64.6027 29.3735 64.3917 29.2132 64.2031C29.1959 64.1827 29.1788 64.1626 29.1621 64.1429C29.1 64.0698 29.0419 64.0014 28.988 63.939L26.691 66.6603Z" fill="#F5F5F5" stroke="url(#paint3_linear_1880_7100)" stroke-width="0.5"/>
<path d="M25.4991 31.4985C39.6519 31.5811 34.9997 33.499 35.998 33.9992C42.2549 37.1338 32.4485 33.8852 28.9993 37.4989C26.2399 40.3899 23.5604 42.6049 23.5604 42.6049C23.5604 42.6049 16.3857 50.0848 13.6978 51.7215C17.2892 51.6379 23.554 55.0014 25.7581 56.2078C28.3542 57.1055 30.0721 58.8621 30.2364 60.7747C30.4007 62.6873 31.8552 65.2944 31.0172 65.3139C30.3468 65.3295 29.4542 64.0469 28.9837 63.5588L26.5 66.499C25.758 65.4982 26.3485 60.9851 25.8473 60.0385C25.3461 59.092 25.1351 59.0978 20.9083 58.6005C16.8674 58.1251 10.8799 56.2078 9.63418 55.6251C8.30399 55.0029 6.80129 52.2774 7.79099 51.0566C8.78068 49.8358 21.1922 31.4733 25.4991 31.4985Z" fill="#F5F5F5"/>
<ellipse cx="38.3553" cy="65.2106" rx="0.299558" ry="1.19823" transform="rotate(7.96395 38.3553 65.2106)" fill="#8C8C8C"/>
<path d="M47.3918 26.2688C38.9529 21.2688 31.2493 22.2626 27.2536 23.3844C25.8155 0.788788 38.2819 1.26939 41.7811 4.83834C49.7895 4.83841 48.3507 19.5379 47.3918 26.2688Z" fill="#8C8C8C"/>
<path d="M44.7025 18.169C44.5472 20.7981 43.2039 23.1198 41.5904 24.7709C40.7846 25.5955 39.9172 26.2466 39.108 26.6815C38.2929 27.1196 37.5612 27.3253 37.0206 27.2933C36.48 27.2614 35.7776 26.971 35.0198 26.4399C34.2675 25.9128 33.4827 25.164 32.7796 24.2503C31.3718 22.4207 30.3113 19.9569 30.4667 17.3279C30.5049 16.68 30.5238 16.0459 30.5419 15.4362C30.5428 15.4055 30.5438 15.3749 30.5447 15.3444C30.5637 14.705 30.583 14.094 30.624 13.5144C30.7062 12.3515 30.8745 11.3432 31.2833 10.5248C31.6865 9.71787 32.3305 9.082 33.3993 8.67318C34.4785 8.26037 35.9984 8.07658 38.1485 8.20362C40.2987 8.33067 41.7863 8.69216 42.8094 9.22919C43.8227 9.76103 44.3873 10.4683 44.6926 11.3171C45.0023 12.1779 45.0506 13.1991 44.9953 14.3635C44.9677 14.9439 44.9149 15.553 44.8586 16.1902L44.8505 16.2817C44.7967 16.8893 44.7408 17.5211 44.7025 18.169Z" fill="#F5F5F5" stroke="#8E8E8E" stroke-width="0.5"/>
<path d="M46.5758 14.2863C36.477 12.6594 32.4855 10.2664 29.5703 10.9096C29.8942 9.14089 32.194 5.60352 38.8019 5.60352C45.4098 5.60352 46.7378 11.392 46.5758 14.2863Z" fill="#8C8C8C"/>
</g>
<defs>
<linearGradient id="paint0_linear_1880_7100" x1="36.4852" y1="48.5862" x2="45.3383" y2="19.1148" gradientUnits="userSpaceOnUse">
<stop offset="0.0208333" stop-color="#8C8C8C"/>
<stop offset="0.817708" stop-color="#8C8C8C"/>
<stop offset="0.817808" stop-color="#8C8C8C" stop-opacity="0"/>
</linearGradient>
<linearGradient id="paint1_linear_1880_7100" x1="40.5" y1="38.999" x2="45.2314" y2="34.5977" gradientUnits="userSpaceOnUse">
<stop offset="0.0208333" stop-color="#8C8C8C"/>
<stop offset="0.817708" stop-color="#8C8C8C"/>
<stop offset="0.817808" stop-color="#8C8C8C" stop-opacity="0"/>
</linearGradient>
<linearGradient id="paint2_linear_1880_7100" x1="12" y1="56.499" x2="23.5" y2="43.499" gradientUnits="userSpaceOnUse">
<stop offset="0.0208333" stop-color="#8C8C8C"/>
<stop offset="0.817708" stop-color="#8C8C8C"/>
<stop offset="0.817808" stop-color="#8C8C8C" stop-opacity="0"/>
</linearGradient>
<linearGradient id="paint3_linear_1880_7100" x1="7.49805" y1="40.999" x2="31.498" y2="40.999" gradientUnits="userSpaceOnUse">
<stop offset="0.0208333" stop-color="#8C8C8C"/>
<stop offset="0.817708" stop-color="#8C8C8C"/>
<stop offset="0.817808" stop-color="#8C8C8C" stop-opacity="0"/>
</linearGradient>
</defs>
</svg>
