<svg width="72" height="89" viewBox="0 0 72 89" fill="none" xmlns="http://www.w3.org/2000/svg">
<mask id="mask0_1880_7076" style="mask-type:alpha" maskUnits="userSpaceOnUse" x="0" y="0" width="72" height="89">
<rect width="72" height="89" rx="20" fill="#E1FF67"/>
</mask>
<g mask="url(#mask0_1880_7076)">
<path fill-rule="evenodd" clip-rule="evenodd" d="M40.7341 23.1157C40.3757 24.6664 39.9511 26.5033 40.9929 28.0704C41.8755 29.398 42.7364 30.2291 47.6349 30.2291C50.8493 30.2291 52.8656 37.3698 52.5098 44.2608C52.3243 45.5206 52.1183 51.3179 52.1183 53.8917C52.1183 54.8273 52.2512 56.6857 52.4112 58.9233C52.71 63.1017 53.1034 68.6026 52.9027 71.8873C52.8978 71.9547 52.8927 72.0235 52.8875 72.0936C52.8113 73.1168 52.7141 74.423 53.1148 75.726C53.5582 77.1677 53.552 77.4643 53.5369 78.1928C53.5338 78.3438 53.5302 78.5133 53.5302 78.7153C53.5303 79.6716 53.2792 80.4468 53.0514 81.1502C52.9995 81.3105 52.9488 81.4671 52.9026 81.6212C52.7142 82.2489 52.2532 82.7333 51.9538 83.0326C51.4557 83.5308 50.0443 84.4441 50.0443 83.9459C50.0443 83.4765 50.173 83.3445 50.8658 82.634C50.9084 82.5904 50.9531 82.5445 51 82.4963C52.1746 81.2891 51.6844 79.8652 51.5 79.4963C51.1012 78.6987 50.4544 79.4169 50.5 79.9963C50.5456 80.5757 50.4324 82.5525 50 81.9963C49.5676 81.4402 49.0707 79.775 49.4108 77.7258C49.5904 76.6436 49.8877 76.1128 50.1556 75.6345C50.395 75.207 50.611 74.8214 50.6986 74.1216C50.8841 72.6388 49.1348 62.542 48.5483 59.2053C48.3122 57.8626 48.1989 55.9601 48.0663 53.7331C47.8694 50.4261 47.6298 46.4033 46.8825 42.4342C45.9246 37.347 39.4466 32.3394 36.1312 31.6874C36.0015 32.396 35.8561 33.0573 35.7113 33.6325C32.4733 33.6325 26.9936 38.0328 26.5785 43.3464C26.1634 48.66 24.752 53.5585 23.7557 56.7965C22.7594 60.0344 18.8572 72.8203 18.8572 74.3147C18.8572 75.02 19.0236 75.4294 19.2081 75.8833C19.4145 76.3912 19.6436 76.9548 19.6875 78.0509C19.7705 80.1265 19.3554 81.5379 18.8572 82.0361C18.3591 82.5342 18.2956 81.4429 18.4127 80.8737C18.5494 80.2095 18.4127 78.9641 17.8609 79.2962C17.5764 79.4675 17.2797 79.7944 17.2797 81.0398C17.2797 82.0361 17.9439 82.7279 18.276 82.9493C18.6618 83.0323 19.2723 84.1947 18.8572 84.2777C18.4421 84.3607 16.3371 82.8663 16.0344 82.2851C15.8191 81.8719 15.7424 81.1395 15.6585 80.3377C15.6228 79.9967 15.5858 79.6431 15.5362 79.2962C15.52 79.1827 15.5046 79.0818 15.4906 78.9906C15.3619 78.1489 15.3601 78.1377 16.0344 76.6394C16.6321 75.311 16.8923 72.8756 16.9476 71.824C16.3664 64.8499 19.6874 53.3094 20.6837 50.8187C21.4808 48.8261 21.6247 45.7818 21.5971 44.5088C20.6008 38.2819 21.348 31.3908 24.586 30.7266C25.6812 30.502 26.754 30.4293 27.765 30.3608C29.743 30.2268 31.4843 30.1088 32.693 28.9001C33.933 27.6601 34.7686 24.5828 33.8848 22.092C35.1967 22.092 35.935 23.0159 36.2995 24.3834C37.0534 23.0911 38.4658 22.1344 40.9932 21.8428C40.938 22.2334 40.8389 22.6623 40.7341 23.1157Z" fill="#F5F5F5"/>
<path d="M40.9929 28.0704L41.2011 27.932L41.2011 27.932L40.9929 28.0704ZM40.7341 23.1157L40.9777 23.172L40.9777 23.172L40.7341 23.1157ZM47.6349 30.2291L47.6349 29.9791H47.6349V30.2291ZM52.5098 44.2608L52.7572 44.2972L52.7589 44.2855L52.7595 44.2737L52.5098 44.2608ZM52.4112 58.9233L52.1619 58.9412L52.1619 58.9412L52.4112 58.9233ZM52.9027 71.8873L53.152 71.9053L53.1522 71.9025L52.9027 71.8873ZM52.8875 72.0936L53.1368 72.1122L53.1368 72.1122L52.8875 72.0936ZM53.1148 75.726L52.8759 75.7995L52.8759 75.7995L53.1148 75.726ZM53.5369 78.1928L53.7868 78.198L53.7868 78.198L53.5369 78.1928ZM53.5302 78.7153L53.2802 78.7153L53.2802 78.7154L53.5302 78.7153ZM53.0514 81.1502L52.8136 81.0732L52.8136 81.0732L53.0514 81.1502ZM52.9026 81.6212L52.6631 81.5493L52.6631 81.5493L52.9026 81.6212ZM50.8658 82.634L50.6868 82.4595L50.6868 82.4595L50.8658 82.634ZM51 82.4963L51.1792 82.6706L51.1792 82.6706L51 82.4963ZM51.5 79.4963L51.7236 79.3845L51.7236 79.3845L51.5 79.4963ZM49.4108 77.7258L49.1642 77.6848L49.1642 77.6848L49.4108 77.7258ZM50.1556 75.6345L49.9375 75.5123L49.9375 75.5123L50.1556 75.6345ZM50.6986 74.1216L50.4505 74.0906L50.4505 74.0906L50.6986 74.1216ZM48.5483 59.2053L48.302 59.2486L48.302 59.2486L48.5483 59.2053ZM48.0663 53.7331L47.8168 53.7479L47.8168 53.7479L48.0663 53.7331ZM46.8825 42.4342L47.1282 42.388L47.1282 42.388L46.8825 42.4342ZM36.1312 31.6874L36.1795 31.4421L35.931 31.3932L35.8853 31.6423L36.1312 31.6874ZM35.7113 33.6325V33.8825H35.9061L35.9537 33.6935L35.7113 33.6325ZM23.7557 56.7965L23.5167 56.7229L23.5167 56.7229L23.7557 56.7965ZM19.2081 75.8833L19.4397 75.7891L19.4397 75.7891L19.2081 75.8833ZM19.6875 78.0509L19.4377 78.0608L19.4377 78.0608L19.6875 78.0509ZM18.8572 82.0361L19.034 82.2128L19.034 82.2128L18.8572 82.0361ZM18.4127 80.8737L18.1679 80.8233L18.1679 80.8233L18.4127 80.8737ZM17.8609 79.2962L17.732 79.082L17.732 79.082L17.8609 79.2962ZM18.276 82.9493L18.1374 83.1573L18.1769 83.1837L18.2234 83.1937L18.276 82.9493ZM16.0344 82.2851L16.2561 82.1696L16.2561 82.1696L16.0344 82.2851ZM15.6585 80.3377L15.9071 80.3117L15.9071 80.3117L15.6585 80.3377ZM15.5362 79.2962L15.2887 79.3316L15.2887 79.3316L15.5362 79.2962ZM15.4906 78.9906L15.7377 78.9528L15.7377 78.9528L15.4906 78.9906ZM16.0344 76.6394L15.8064 76.5368L15.8064 76.5368L16.0344 76.6394ZM16.9476 71.824L17.1973 71.8371L17.1981 71.8202L17.1967 71.8032L16.9476 71.824ZM20.6837 50.8187L20.9158 50.9115L20.9158 50.9115L20.6837 50.8187ZM21.5971 44.5088L21.847 44.5033L21.8466 44.4862L21.8439 44.4693L21.5971 44.5088ZM24.586 30.7266L24.5357 30.4817L24.586 30.7266ZM27.765 30.3608L27.7481 30.1114L27.7481 30.1114L27.765 30.3608ZM32.693 28.9001L32.5162 28.7233L32.5162 28.7233L32.693 28.9001ZM33.8848 22.092V21.842H33.5308L33.6492 22.1756L33.8848 22.092ZM36.2995 24.3834L36.0579 24.4477L36.2126 25.0283L36.5154 24.5094L36.2995 24.3834ZM40.9932 21.8428L41.2407 21.8777L41.286 21.5573L40.9645 21.5944L40.9932 21.8428ZM41.2011 27.932C40.2284 26.4688 40.6142 24.7445 40.9777 23.172L40.4905 23.0594C40.1371 24.5884 39.6738 26.5377 40.7848 28.2088L41.2011 27.932ZM47.6349 29.9791C45.1919 29.9791 43.7921 29.7706 42.9005 29.4154C42.0307 29.0688 41.6301 28.5772 41.2011 27.932L40.7848 28.2088C41.2384 28.8912 41.7095 29.479 42.7154 29.8798C43.6996 30.272 45.1795 30.4791 47.6349 30.4791V29.9791ZM52.7595 44.2737C52.9386 40.8035 52.5214 37.2642 51.6489 34.5834C51.213 33.2441 50.6587 32.1042 49.9963 31.2942C49.3336 30.4839 48.5406 29.9791 47.6349 29.9791L47.6349 30.4791C48.3365 30.4791 49.0009 30.8669 49.6092 31.6107C50.2178 32.3549 50.748 33.431 51.1734 34.7382C52.0237 37.3505 52.4368 40.8271 52.2602 44.2479L52.7595 44.2737ZM52.3683 53.8917C52.3683 52.6094 52.4197 50.5202 52.4943 48.5932C52.5692 46.6593 52.6668 44.9107 52.7572 44.2972L52.2625 44.2244C52.1673 44.8707 52.0692 46.6507 51.9947 48.5738C51.92 50.5039 51.8683 52.6002 51.8683 53.8917H52.3683ZM52.6606 58.9055C52.5002 56.662 52.3683 54.8158 52.3683 53.8917H51.8683C51.8683 54.8388 52.0023 56.7094 52.1619 58.9412L52.6606 58.9055ZM53.1522 71.9025C53.3542 68.5972 52.9588 63.0761 52.6606 58.9055L52.1619 58.9412C52.4612 63.1274 52.8526 68.6081 52.6531 71.872L53.1522 71.9025ZM53.1368 72.1122C53.142 72.0421 53.1471 71.973 53.152 71.9053L52.6533 71.8693C52.6485 71.9364 52.6434 72.0049 52.6382 72.0751L53.1368 72.1122ZM53.3538 75.6525C52.9688 74.4007 53.0603 73.1398 53.1368 72.1122L52.6382 72.0751C52.5624 73.0937 52.4594 74.4452 52.8759 75.7995L53.3538 75.6525ZM53.7868 78.198C53.7944 77.8345 53.8006 77.5586 53.745 77.1896C53.6902 76.825 53.5762 76.3758 53.3538 75.6525L52.8759 75.7995C53.0968 76.5179 53.2015 76.9378 53.2506 77.264C53.299 77.5859 53.2945 77.8226 53.2869 78.1876L53.7868 78.198ZM53.7802 78.7153C53.7802 78.5161 53.7837 78.349 53.7868 78.198L53.2869 78.1876C53.2838 78.3386 53.2802 78.5104 53.2802 78.7153L53.7802 78.7153ZM53.2893 81.2272C53.5167 80.525 53.7803 79.7155 53.7802 78.7153L53.2802 78.7154C53.2803 79.6276 53.0418 80.3686 52.8136 81.0732L53.2893 81.2272ZM53.142 81.693C53.1873 81.542 53.2372 81.388 53.2893 81.2272L52.8136 81.0732C52.7618 81.233 52.7103 81.3922 52.6631 81.5493L53.142 81.693ZM52.1306 83.2094C52.4298 82.9102 52.9338 82.3869 53.142 81.693L52.6631 81.5493C52.4946 82.1109 52.0766 82.5563 51.7771 82.8558L52.1306 83.2094ZM49.7943 83.9459C49.7943 84.0735 49.8456 84.2124 49.9855 84.2892C50.0996 84.3519 50.2257 84.3447 50.3137 84.33C50.4979 84.2993 50.7211 84.1984 50.9327 84.0819C51.3645 83.8445 51.8619 83.4781 52.1306 83.2094L51.7771 82.8558C51.5476 83.0853 51.0903 83.4247 50.6918 83.6438C50.4883 83.7557 50.3274 83.8208 50.2315 83.8368C50.1794 83.8455 50.1914 83.8318 50.2263 83.851C50.249 83.8635 50.27 83.8842 50.2831 83.9098C50.2948 83.9329 50.2943 83.9484 50.2943 83.9459H49.7943ZM50.6868 82.4595C50.3492 82.8057 50.1218 83.0373 49.9864 83.2429C49.8335 83.4752 49.7943 83.6774 49.7943 83.9459H50.2943C50.2943 83.745 50.3194 83.6465 50.4041 83.5178C50.5063 83.3625 50.6896 83.1728 51.0448 82.8086L50.6868 82.4595ZM50.8208 82.322C50.774 82.3701 50.7294 82.4158 50.6868 82.4595L51.0448 82.8086C51.0874 82.7649 51.1321 82.719 51.1792 82.6706L50.8208 82.322ZM51.2764 79.6081C51.4439 79.9431 51.8827 81.2305 50.8208 82.322L51.1792 82.6706C52.4664 81.3476 51.925 79.7873 51.7236 79.3845L51.2764 79.6081ZM50.7492 79.9767C50.7329 79.769 50.8486 79.5296 50.982 79.4309C51.041 79.3873 51.0762 79.3894 51.0954 79.3954C51.121 79.4032 51.193 79.4412 51.2764 79.6081L51.7236 79.3845C51.6076 79.1526 51.4492 78.9812 51.2428 78.9176C51.0299 78.8519 50.8316 78.9203 50.6847 79.0289C50.4064 79.2348 50.2215 79.6442 50.2508 80.0159L50.7492 79.9767ZM49.8026 82.1498C49.8693 82.2355 49.9873 82.3511 50.1585 82.3436C50.3325 82.3359 50.4334 82.2073 50.4805 82.1299C50.58 81.9664 50.6382 81.7073 50.6763 81.4602C50.7556 80.9458 50.7737 80.2874 50.7492 79.9767L50.2508 80.0159C50.2719 80.2847 50.2561 80.9043 50.1822 81.384C50.1436 81.6341 50.0953 81.8011 50.0534 81.8699C50.0298 81.9087 50.0513 81.8478 50.1365 81.8441C50.2189 81.8404 50.2388 81.8962 50.1974 81.8429L49.8026 82.1498ZM49.1642 77.6848C48.9892 78.7392 49.0291 79.6969 49.1698 80.4659C49.309 81.2268 49.5515 81.8268 49.8026 82.1498L50.1974 81.8429C50.0161 81.6097 49.7939 81.099 49.6616 80.3759C49.5308 79.6611 49.4923 78.7615 49.6574 77.7667L49.1642 77.6848ZM49.9375 75.5123C49.663 76.0024 49.3505 76.5621 49.1642 77.6848L49.6574 77.7667C49.8303 76.7251 50.1124 76.2232 50.3737 75.7566L49.9375 75.5123ZM50.4505 74.0906C50.3691 74.7406 50.1732 75.0914 49.9375 75.5123L50.3737 75.7566C50.6168 75.3226 50.8528 74.9022 50.9466 74.1527L50.4505 74.0906ZM48.302 59.2486C48.5952 60.9166 49.1789 64.273 49.6659 67.3971C49.9095 68.9595 50.1286 70.4617 50.2752 71.6648C50.3485 72.2666 50.4034 72.7913 50.4342 73.2101C50.4655 73.6358 50.4702 73.9328 50.4505 74.0906L50.9466 74.1527C50.9733 73.9397 50.964 73.5969 50.9328 73.1735C50.9012 72.7433 50.8453 72.2098 50.7715 71.6044C50.6239 70.393 50.4038 68.8845 50.16 67.3201C49.6721 64.191 49.0878 60.8306 48.7945 59.162L48.302 59.2486ZM47.8168 53.7479C47.949 55.9686 48.0629 57.8883 48.302 59.2486L48.7945 59.162C48.5615 57.8368 48.4489 55.9516 48.3159 53.7182L47.8168 53.7479ZM46.6368 42.4805C47.3808 46.4316 47.6197 50.439 47.8168 53.7479L48.3159 53.7182C48.1191 50.4131 47.8789 46.375 47.1282 42.388L46.6368 42.4805ZM36.083 31.9327C37.6763 32.246 40.084 33.6269 42.2222 35.5821C44.3586 37.5356 46.1724 40.0139 46.6368 42.4805L47.1282 42.388C46.6347 39.7673 44.7306 37.1982 42.5596 35.2131C40.3905 33.2297 37.9015 31.7807 36.1795 31.4421L36.083 31.9327ZM35.8853 31.6423C35.7565 32.3457 35.6123 33.0016 35.4688 33.5714L35.9537 33.6935C36.0999 33.1129 36.2464 32.4463 36.3772 31.7324L35.8853 31.6423ZM35.7113 33.3825C33.9999 33.3825 31.7612 34.5315 29.9126 36.317C28.0565 38.1099 26.543 40.5919 26.3293 43.3269L26.8278 43.3659C27.0292 40.7873 28.463 38.4124 30.26 36.6767C32.0645 34.9337 34.1847 33.8825 35.7113 33.8825V33.3825ZM26.3293 43.3269C25.9164 48.6116 24.5121 53.488 23.5167 56.7229L23.9946 56.87C24.9919 53.6289 26.4104 48.7085 26.8278 43.3659L26.3293 43.3269ZM23.5167 56.7229C23.0185 58.3423 21.7934 62.3498 20.6927 66.1397C20.1425 68.0344 19.6229 69.8765 19.2406 71.3392C19.0495 72.0703 18.8922 72.7087 18.7825 73.2125C18.675 73.7065 18.6072 74.0964 18.6072 74.3147H19.1072C19.1072 74.1595 19.1614 73.8228 19.2711 73.3189C19.3787 72.8248 19.534 72.1939 19.7244 71.4656C20.1049 70.0094 20.6231 68.1724 21.1729 66.2791C22.2724 62.493 23.4966 58.4886 23.9946 56.87L23.5167 56.7229ZM18.6072 74.3147C18.6072 75.0701 18.7892 75.5165 18.9765 75.9774L19.4397 75.7891C19.2581 75.3422 19.1072 74.9698 19.1072 74.3147H18.6072ZM18.9765 75.9774C19.1778 76.4728 19.3955 77.0058 19.4377 78.0608L19.9373 78.0409C19.8918 76.9037 19.6512 76.3096 19.4397 75.7891L18.9765 75.9774ZM19.4377 78.0608C19.4785 79.0808 19.3964 79.9298 19.2467 80.5788C19.0948 81.2368 18.8802 81.6595 18.6804 81.8593L19.034 82.2128C19.3324 81.9144 19.5744 81.3823 19.7339 80.6912C19.8954 79.991 19.9795 79.0965 19.9373 78.0409L19.4377 78.0608ZM18.6804 81.8593C18.6323 81.9075 18.6086 81.9162 18.6098 81.9158C18.6201 81.9123 18.6513 81.9088 18.6824 81.926C18.7039 81.9379 18.7018 81.9472 18.6882 81.9213C18.6757 81.8974 18.6611 81.8578 18.6481 81.8002C18.5942 81.561 18.6044 81.1828 18.6576 80.9241L18.1679 80.8233C18.1039 81.1339 18.0873 81.5859 18.1603 81.9101C18.1791 81.9933 18.2059 82.078 18.2453 82.1533C18.2837 82.2267 18.3442 82.3102 18.4398 82.3633C18.5451 82.4216 18.6621 82.4261 18.7708 82.3892C18.8703 82.3553 18.9576 82.2892 19.034 82.2128L18.6804 81.8593ZM18.6576 80.9241C18.7329 80.5582 18.7333 80.0433 18.6379 79.6521C18.5918 79.463 18.5126 79.2566 18.3675 79.1244C18.289 79.0528 18.187 78.9997 18.0645 78.9919C17.9445 78.9843 17.8319 79.0219 17.732 79.082L17.9898 79.5104C18.0279 79.4875 18.0402 79.4914 18.0328 79.4909C18.0229 79.4903 18.021 79.4851 18.0308 79.494C18.0623 79.5227 18.1122 79.6069 18.1521 79.7706C18.2288 80.0851 18.2293 80.525 18.1679 80.8233L18.6576 80.9241ZM17.732 79.082C17.5525 79.1901 17.3671 79.3523 17.2334 79.6676C17.1051 79.9703 17.0297 80.4014 17.0297 81.0398H17.5297C17.5297 80.4328 17.6027 80.0777 17.6938 79.8628C17.7795 79.6605 17.8848 79.5736 17.9898 79.5104L17.732 79.082ZM17.0297 81.0398C17.0297 82.1465 17.7615 82.9068 18.1374 83.1573L18.4147 82.7413C18.1263 82.5491 17.5297 81.9256 17.5297 81.0398H17.0297ZM18.2234 83.1937C18.2229 83.1936 18.2412 83.1984 18.2781 83.2263C18.313 83.2527 18.3541 83.2918 18.3985 83.3434C18.4875 83.4467 18.5754 83.5834 18.6414 83.7214C18.7096 83.864 18.7431 83.984 18.746 84.0568C18.7474 84.093 18.7403 84.0938 18.749 84.0783C18.7636 84.0522 18.7908 84.0361 18.8082 84.0326L18.9062 84.5229C19.0274 84.4986 19.1264 84.428 19.1855 84.3221C19.2387 84.2268 19.249 84.1226 19.2456 84.0368C19.2387 83.8658 19.1732 83.6744 19.0925 83.5056C19.0096 83.3323 18.8984 83.1576 18.7774 83.0171C18.6665 82.8883 18.5101 82.744 18.3286 82.7049L18.2234 83.1937ZM18.8082 84.0326C18.8277 84.0287 18.8056 84.0365 18.7113 84.0037C18.6299 83.9753 18.5248 83.9278 18.4003 83.8621C18.1524 83.7312 17.8504 83.5404 17.548 83.3264C17.2461 83.1128 16.9494 82.88 16.7115 82.667C16.4644 82.4458 16.3084 82.2701 16.2561 82.1696L15.8126 82.4006C15.9116 82.5907 16.1324 82.8197 16.378 83.0396C16.633 83.2678 16.9452 83.5124 17.2592 83.7346C17.5728 83.9565 17.8939 84.1601 18.1669 84.3042C18.3028 84.376 18.4326 84.4361 18.547 84.4759C18.6484 84.5112 18.783 84.5475 18.9062 84.5229L18.8082 84.0326ZM16.2561 82.1696C16.1673 81.9992 16.0993 81.745 16.0437 81.4155C15.9887 81.0898 15.9493 80.7147 15.9071 80.3117L15.4098 80.3638C15.4516 80.7625 15.4925 81.1544 15.5507 81.4987C15.6081 81.8392 15.6861 82.1578 15.8126 82.4006L16.2561 82.1696ZM15.9071 80.3117C15.8715 79.9715 15.834 79.6132 15.7837 79.2609L15.2887 79.3316C15.3375 79.673 15.3741 80.0219 15.4098 80.3638L15.9071 80.3117ZM15.7837 79.2609C15.7673 79.1459 15.7517 79.0439 15.7377 78.9528L15.2435 79.0284C15.2574 79.1196 15.2727 79.2194 15.2887 79.3316L15.7837 79.2609ZM15.7377 78.9528C15.6724 78.5254 15.6496 78.3588 15.705 78.1171C15.7658 77.8523 15.9198 77.5033 16.2623 76.742L15.8064 76.5368C15.4747 77.2738 15.2924 77.6796 15.2177 78.0053C15.1376 78.3542 15.1801 78.6141 15.2435 79.0284L15.7377 78.9528ZM16.2623 76.742C16.5752 76.0467 16.7937 75.079 16.9412 74.1679C17.0894 73.2519 17.1692 72.3711 17.1973 71.8371L16.6979 71.8108C16.6707 72.3285 16.5927 73.1913 16.4476 74.088C16.3017 74.9896 16.0913 75.9038 15.8064 76.5368L16.2623 76.742ZM17.1967 71.8032C16.9094 68.355 17.5873 63.7567 18.4684 59.693C19.349 55.6321 20.4248 52.1391 20.9158 50.9115L20.4516 50.7258C19.9463 51.989 18.8635 55.5116 17.9798 59.5871C17.0967 63.6599 16.4046 68.3188 16.6985 71.8447L17.1967 71.8032ZM20.9158 50.9115C21.7324 48.87 21.8748 45.7836 21.847 44.5033L21.3471 44.5142C21.3746 45.7801 21.2291 48.7821 20.4516 50.7258L20.9158 50.9115ZM21.8439 44.4693C21.3489 41.3755 21.289 38.1255 21.7497 35.5761C21.9802 34.3007 22.3384 33.2155 22.8263 32.4147C23.3131 31.6158 23.916 31.1193 24.6362 30.9715L24.5357 30.4817C23.637 30.6661 22.9322 31.28 22.3993 32.1545C21.8676 33.0273 21.4942 34.1785 21.2577 35.4872C20.7844 38.1062 20.8489 41.4151 21.3502 44.5483L21.8439 44.4693ZM24.6362 30.9715C25.7124 30.7508 26.7688 30.6788 27.7819 30.6102L27.7481 30.1114C26.7392 30.1797 25.65 30.2532 24.5357 30.4817L24.6362 30.9715ZM27.7819 30.6102C29.734 30.478 31.5823 30.3643 32.8698 29.0768L32.5162 28.7233C31.3862 29.8533 29.7521 29.9756 27.7481 30.1114L27.7819 30.6102ZM32.8698 29.0768C33.5355 28.4111 34.0707 27.2807 34.3302 26.0153C34.5907 24.7454 34.5807 23.3057 34.1204 22.0084L33.6492 22.1756C34.0727 23.3691 34.0868 24.7135 33.8404 25.9149C33.5931 27.1209 33.0904 28.1491 32.5162 28.7233L32.8698 29.0768ZM33.8848 22.342C34.4747 22.342 34.9226 22.5468 35.2689 22.8999C35.6219 23.2599 35.8819 23.7875 36.0579 24.4477L36.541 24.319C36.3526 23.6118 36.0612 22.9937 35.6259 22.5498C35.184 22.0992 34.6068 21.842 33.8848 21.842V22.342ZM40.9645 21.5944C38.3819 21.8924 36.8875 22.8793 36.0835 24.2574L36.5154 24.5094C37.2193 23.3028 38.5497 22.3764 41.0218 22.0911L40.9645 21.5944ZM40.9777 23.172C41.0818 22.7214 41.1837 22.2812 41.2407 21.8777L40.7457 21.8078C40.6923 22.1855 40.5959 22.6032 40.4905 23.0594L40.9777 23.172Z" fill="url(#paint0_linear_1880_7076)"/>
<path d="M32.9548 74.3147L29.1361 89.9961H20.2524C20.1971 85.5681 20.3018 73.7999 21.1653 68.0878C22.2446 60.9476 25.7316 57.1285 27.3091 53.2263C28.8866 49.3242 26.5619 41.1047 26.7279 38.2818C26.894 35.459 28.9696 30.7266 37.8533 30.7266C46.7369 30.7266 49.8089 35.2929 49.1447 38.2818C48.4805 41.2707 43.5699 56.3813 43.2499 58.789C43.0312 60.435 43.9418 63.6045 44.5783 65.0159C48.7628 74.9789 49.1451 86.7581 49.1451 89.9961H41.0917C38.5677 81.2287 35.8883 74.6191 34.8644 73.1523C34.0673 73.2187 33.2592 73.9549 32.9548 74.3147Z" fill="#F5F5F5" stroke="url(#paint1_linear_1880_7076)" stroke-width="0.5"/>
<mask id="mask1_1880_7076" style="mask-type:alpha" maskUnits="userSpaceOnUse" x="20" y="30" width="30" height="60">
<path d="M32.9548 74.3147L29.1361 89.9961H20.2524C20.1971 85.5681 20.3018 73.7999 21.1653 68.0878C22.2446 60.9476 25.7316 57.1285 27.3091 53.2263C28.8866 49.3242 26.5619 41.1047 26.7279 38.2818C26.894 35.459 28.9696 30.7266 37.8533 30.7266C46.7369 30.7266 49.8089 35.2929 49.1447 38.2818C48.4805 41.2707 43.5699 56.3813 43.2499 58.789C43.0312 60.435 43.9418 63.6045 44.5783 65.0159C48.7628 74.9789 49.1451 86.7581 49.1451 89.9961H41.0917C38.5677 81.2287 35.8883 74.6191 34.8644 73.1523C34.0673 73.2187 33.2592 73.9549 32.9548 74.3147Z" fill="#F5F5F5"/>
</mask>
<g mask="url(#mask1_1880_7076)">
<path d="M26.4553 43.0114C26.4553 46.1491 24.2238 49.4961 27 49.4961C33.3764 49.4961 36.1953 45.8149 36.1953 42.6773C36.1953 39.5396 33.641 36.9961 30.4901 36.9961C27.3392 36.9961 26.4553 39.8738 26.4553 43.0114Z" fill="#8C8C8C"/>
<path d="M47.74 43.0114C47.74 46.1491 49.9716 49.4961 47.1953 49.4961C40.8189 49.4961 38 45.8149 38 42.6773C38 39.5396 40.5543 36.9961 43.7052 36.9961C46.8561 36.9961 47.74 39.8738 47.74 43.0114Z" fill="#8C8C8C"/>
</g>
<ellipse cx="34.9327" cy="60.6986" rx="0.415125" ry="1.57747" fill="#8C8C8C"/>
<circle cx="31.0305" cy="40.8557" r="5.6457" fill="#8C8C8C"/>
<path d="M36.8441 40.1906C36.8441 43.3087 34.3165 45.8363 31.1984 45.8363C28.0804 45.8363 25.5527 43.3087 25.5527 40.1906C25.5527 37.0726 28.0804 30.9961 31.1984 30.9961C34.3165 30.9961 36.8441 37.0726 36.8441 40.1906Z" fill="#F5F5F5"/>
<circle cx="43.3195" cy="40.8557" r="5.6457" fill="#8C8C8C"/>
<path d="M48.7992 40.1906C48.7992 43.3087 46.2715 45.8363 43.1535 45.8363C40.0355 45.8363 37.5078 43.3087 37.5078 40.1906C37.5078 37.0726 40.0355 31.9961 43.1535 31.9961C46.2715 31.9961 48.7992 37.0726 48.7992 40.1906Z" fill="#F5F5F5"/>
<path d="M47.2451 25.2468C39.1758 20.4658 31.8095 21.416 27.9888 22.4887C26.6137 0.882653 38.5341 1.34221 41.8801 4.75486C49.5377 4.75492 48.162 18.8107 47.2451 25.2468Z" fill="#8C8C8C"/>
<path d="M44.6615 17.5006C44.5132 20.0112 43.2303 22.2289 41.6888 23.8063C40.919 24.5941 40.0904 25.2161 39.3178 25.6313C38.5392 26.0498 37.8416 26.2454 37.3276 26.2151C36.8136 26.1847 36.144 25.9082 35.4201 25.401C34.7017 24.8977 33.9521 24.1824 33.2804 23.3095C31.9354 21.5615 30.9227 19.2082 31.071 16.6976C31.1076 16.0779 31.1257 15.4714 31.143 14.8884C31.1439 14.8591 31.1447 14.8299 31.1456 14.8007C31.1638 14.1893 31.1823 13.6052 31.2215 13.0512C31.3 11.9396 31.4608 10.9772 31.8508 10.1967C32.235 9.4276 32.8487 8.82145 33.8682 8.43149C34.8981 8.03755 36.3496 7.86177 38.4049 7.98321C40.4602 8.10464 41.8809 8.45014 42.8572 8.96262C43.8237 9.46992 44.3617 10.1441 44.6527 10.9531C44.9481 11.7742 44.9944 12.7488 44.9415 13.8619C44.9152 14.4166 44.8647 14.9988 44.8108 15.6081L44.8031 15.6956C44.7517 16.2766 44.6982 16.8809 44.6615 17.5006Z" fill="#F5F5F5" stroke="#8E8E8E" stroke-width="0.5"/>
<path d="M46.462 13.7898C36.8054 12.2342 32.9887 9.94599 30.2012 10.561C30.5109 8.86977 32.71 5.4873 39.0285 5.4873C45.3469 5.4873 46.6168 11.0223 46.462 13.7898Z" fill="#8C8C8C"/>
</g>
<defs>
<linearGradient id="paint0_linear_1880_7076" x1="39.973" y1="37.3101" x2="29.6968" y2="15.4122" gradientUnits="userSpaceOnUse">
<stop offset="0.0208333" stop-color="#8C8C8C"/>
<stop offset="0.817708" stop-color="#8C8C8C"/>
<stop offset="0.817808" stop-color="#8C8C8C" stop-opacity="0"/>
</linearGradient>
<linearGradient id="paint1_linear_1880_7076" x1="36.5" y1="49.9961" x2="36.8031" y2="39.7535" gradientUnits="userSpaceOnUse">
<stop offset="0.0208333" stop-color="#8C8C8C"/>
<stop offset="0.817708" stop-color="#8C8C8C"/>
<stop offset="0.817808" stop-color="#8C8C8C" stop-opacity="0"/>
</linearGradient>
</defs>
</svg>
